<svg width="306" height="100" viewBox="0 0 306 100" fill="none" xmlns="http://www.w3.org/2000/svg">
<g filter="url(#filter0_d_85_328)">
<rect x="2" y="2" width="286" height="80" rx="20" fill="#F4FAFF"/>
<rect x="26" y="25" width="35" height="35" rx="10" fill="#DCECFF"/>
<path d="M70.76 37.1V45.96C70.76 47.0133 71.0333 47.8067 71.58 48.34C72.14 48.8733 72.9133 49.14 73.9 49.14C74.9 49.14 75.6733 48.8733 76.22 48.34C76.78 47.8067 77.06 47.0133 77.06 45.96V37.1H79.34V45.92C79.34 47.0533 79.0933 48.0133 78.6 48.8C78.1067 49.5867 77.4467 50.1733 76.62 50.56C75.7933 50.9467 74.88 51.14 73.88 51.14C72.88 51.14 71.9667 50.9467 71.14 50.56C70.3267 50.1733 69.68 49.5867 69.2 48.8C68.72 48.0133 68.48 47.0533 68.48 45.92V37.1H70.76ZM84.8886 36.2V51H82.6086V36.2H84.8886ZM90.842 41.84V47.94C90.842 48.3533 90.9354 48.6533 91.122 48.84C91.322 49.0133 91.6554 49.1 92.122 49.1H93.522V51H91.722C90.6954 51 89.9087 50.76 89.362 50.28C88.8154 49.8 88.542 49.02 88.542 47.94V41.84H87.242V39.98H88.542V37.24H90.842V39.98H93.522V41.84H90.842ZM97.0834 38.52C96.6701 38.52 96.3234 38.38 96.0434 38.1C95.7634 37.82 95.6234 37.4733 95.6234 37.06C95.6234 36.6467 95.7634 36.3 96.0434 36.02C96.3234 35.74 96.6701 35.6 97.0834 35.6C97.4834 35.6 97.8234 35.74 98.1034 36.02C98.3834 36.3 98.5234 36.6467 98.5234 37.06C98.5234 37.4733 98.3834 37.82 98.1034 38.1C97.8234 38.38 97.4834 38.52 97.0834 38.52ZM98.2034 39.98V51H95.9234V39.98H98.2034ZM103.777 36.2V51H101.497V36.2H103.777ZM108.23 38.52C107.817 38.52 107.47 38.38 107.19 38.1C106.91 37.82 106.77 37.4733 106.77 37.06C106.77 36.6467 106.91 36.3 107.19 36.02C107.47 35.74 107.817 35.6 108.23 35.6C108.63 35.6 108.97 35.74 109.25 36.02C109.53 36.3 109.67 36.6467 109.67 37.06C109.67 37.4733 109.53 37.82 109.25 38.1C108.97 38.38 108.63 38.52 108.23 38.52ZM109.35 39.98V51H107.07V39.98H109.35ZM114.664 49.14H119.664V51H112.024V49.14L117.044 41.84H112.024V39.98H119.664V41.84L114.664 49.14ZM121.598 45.44C121.598 44.3333 121.824 43.3533 122.278 42.5C122.744 41.6467 123.371 40.9867 124.158 40.52C124.958 40.04 125.838 39.8 126.798 39.8C127.664 39.8 128.418 39.9733 129.058 40.32C129.711 40.6533 130.231 41.0733 130.618 41.58V39.98H132.918V51H130.618V49.36C130.231 49.88 129.704 50.3133 129.038 50.66C128.371 51.0067 127.611 51.18 126.758 51.18C125.811 51.18 124.944 50.94 124.158 50.46C123.371 49.9667 122.744 49.2867 122.278 48.42C121.824 47.54 121.598 46.5467 121.598 45.44ZM130.618 45.48C130.618 44.72 130.458 44.06 130.138 43.5C129.831 42.94 129.424 42.5133 128.918 42.22C128.411 41.9267 127.864 41.78 127.278 41.78C126.691 41.78 126.144 41.9267 125.638 42.22C125.131 42.5 124.718 42.92 124.398 43.48C124.091 44.0267 123.938 44.68 123.938 45.44C123.938 46.2 124.091 46.8667 124.398 47.44C124.718 48.0133 125.131 48.4533 125.638 48.76C126.158 49.0533 126.704 49.2 127.278 49.2C127.864 49.2 128.411 49.0533 128.918 48.76C129.424 48.4667 129.831 48.04 130.138 47.48C130.458 46.9067 130.618 46.24 130.618 45.48ZM138.873 41.84V47.94C138.873 48.3533 138.966 48.6533 139.153 48.84C139.353 49.0133 139.686 49.1 140.153 49.1H141.553V51H139.753C138.726 51 137.939 50.76 137.393 50.28C136.846 49.8 136.573 49.02 136.573 47.94V41.84H135.273V39.98H136.573V37.24H138.873V39.98H141.553V41.84H138.873ZM145.114 38.52C144.701 38.52 144.354 38.38 144.074 38.1C143.794 37.82 143.654 37.4733 143.654 37.06C143.654 36.6467 143.794 36.3 144.074 36.02C144.354 35.74 144.701 35.6 145.114 35.6C145.514 35.6 145.854 35.74 146.134 36.02C146.414 36.3 146.554 36.6467 146.554 37.06C146.554 37.4733 146.414 37.82 146.134 38.1C145.854 38.38 145.514 38.52 145.114 38.52ZM146.234 39.98V51H143.954V39.98H146.234ZM154.307 51.18C153.267 51.18 152.327 50.9467 151.487 50.48C150.647 50 149.987 49.3333 149.507 48.48C149.027 47.6133 148.787 46.6133 148.787 45.48C148.787 44.36 149.034 43.3667 149.527 42.5C150.021 41.6333 150.694 40.9667 151.547 40.5C152.401 40.0333 153.354 39.8 154.407 39.8C155.461 39.8 156.414 40.0333 157.267 40.5C158.121 40.9667 158.794 41.6333 159.287 42.5C159.781 43.3667 160.027 44.36 160.027 45.48C160.027 46.6 159.774 47.5933 159.267 48.46C158.761 49.3267 158.067 50 157.187 50.48C156.321 50.9467 155.361 51.18 154.307 51.18ZM154.307 49.2C154.894 49.2 155.441 49.06 155.947 48.78C156.467 48.5 156.887 48.08 157.207 47.52C157.527 46.96 157.687 46.28 157.687 45.48C157.687 44.68 157.534 44.0067 157.227 43.46C156.921 42.9 156.514 42.48 156.007 42.2C155.501 41.92 154.954 41.78 154.367 41.78C153.781 41.78 153.234 41.92 152.727 42.2C152.234 42.48 151.841 42.9 151.547 43.46C151.254 44.0067 151.107 44.68 151.107 45.48C151.107 46.6667 151.407 47.5867 152.007 48.24C152.621 48.88 153.387 49.2 154.307 49.2ZM168.141 39.8C169.008 39.8 169.781 39.98 170.461 40.34C171.155 40.7 171.695 41.2333 172.081 41.94C172.468 42.6467 172.661 43.5 172.661 44.5V51H170.401V44.84C170.401 43.8533 170.155 43.1 169.661 42.58C169.168 42.0467 168.495 41.78 167.641 41.78C166.788 41.78 166.108 42.0467 165.601 42.58C165.108 43.1 164.861 43.8533 164.861 44.84V51H162.581V39.98H164.861V41.24C165.235 40.7867 165.708 40.4333 166.281 40.18C166.868 39.9267 167.488 39.8 168.141 39.8Z" fill="#73767E"/>
<path d="M46.155 29H37.3333C36.4493 29 35.6014 29.3512 34.9763 29.9763C34.3512 30.6014 34 31.4493 34 32.3333V52.3333C34 53.2174 34.3512 54.0652 34.9763 54.6904C35.6014 55.3155 36.4493 55.6667 37.3333 55.6667H50.6667C51.5507 55.6667 52.3986 55.3155 53.0237 54.6904C53.6488 54.0652 54 53.2174 54 52.3333V36.845C53.9999 36.403 53.8242 35.9792 53.5117 35.6667L47.3333 29.4883C47.0208 29.1758 46.597 29.0001 46.155 29V29ZM46.5 34.8333V31.5L51.5 36.5H48.1667C47.7246 36.5 47.3007 36.3244 46.9882 36.0118C46.6756 35.6993 46.5 35.2754 46.5 34.8333ZM47.3333 51.5V41.5C47.3333 41.279 47.4211 41.067 47.5774 40.9107C47.7337 40.7545 47.9457 40.6667 48.1667 40.6667H49.8333C50.0543 40.6667 50.2663 40.7545 50.4226 40.9107C50.5789 41.067 50.6667 41.279 50.6667 41.5V51.5C50.6667 51.721 50.5789 51.933 50.4226 52.0893C50.2663 52.2455 50.0543 52.3333 49.8333 52.3333H48.1667C47.9457 52.3333 47.7337 52.2455 47.5774 52.0893C47.4211 51.933 47.3333 51.721 47.3333 51.5ZM43.1667 52.3333C42.9457 52.3333 42.7337 52.2455 42.5774 52.0893C42.4211 51.933 42.3333 51.721 42.3333 51.5V44.8333C42.3333 44.6123 42.4211 44.4004 42.5774 44.2441C42.7337 44.0878 42.9457 44 43.1667 44H44.8333C45.0543 44 45.2663 44.0878 45.4226 44.2441C45.5789 44.4004 45.6667 44.6123 45.6667 44.8333V51.5C45.6667 51.721 45.5789 51.933 45.4226 52.0893C45.2663 52.2455 45.0543 52.3333 44.8333 52.3333H43.1667ZM38.1667 52.3333C37.9457 52.3333 37.7337 52.2455 37.5774 52.0893C37.4211 51.933 37.3333 51.721 37.3333 51.5V48.1667C37.3333 47.9457 37.4211 47.7337 37.5774 47.5774C37.7337 47.4211 37.9457 47.3333 38.1667 47.3333H39.8333C40.0543 47.3333 40.2663 47.4211 40.4226 47.5774C40.5789 47.7337 40.6667 47.9457 40.6667 48.1667V51.5C40.6667 51.721 40.5789 51.933 40.4226 52.0893C40.2663 52.2455 40.0543 52.3333 39.8333 52.3333H38.1667Z" fill="#0070FF"/>
</g>
<mask id="mask0_85_328" style="mask-type:alpha" maskUnits="userSpaceOnUse" x="2" y="2" width="286" height="80">
<rect x="2" y="2" width="286" height="80" rx="20" fill="#F4FAFF"/>
<rect x="26" y="25" width="35" height="35" rx="10" fill="#DCECFF"/>
<path d="M46.663 55.4509H42.0309C41.7407 55.451 41.4591 55.3518 41.233 55.1699C41.0069 54.988 40.8497 54.7342 40.7876 54.4507L40.2697 52.0532C39.5788 51.7505 38.9236 51.3719 38.3163 50.9245L35.9786 51.6689C35.7019 51.7572 35.4034 51.7481 35.1326 51.6432C34.8617 51.5384 34.6349 51.344 34.4898 51.0925L32.1686 47.0827C32.025 46.8309 31.9711 46.5378 32.0157 46.2514C32.0603 45.965 32.2008 45.7022 32.4142 45.506L34.2276 43.8517C34.1452 43.1023 34.1452 42.3461 34.2276 41.5967L32.4142 39.9462C32.2005 39.75 32.0599 39.4869 32.0152 39.2002C31.9706 38.9135 32.0247 38.6202 32.1686 38.3683L34.4847 34.3559C34.6298 34.1044 34.8566 33.91 35.1275 33.8052C35.3983 33.7003 35.6969 33.6912 35.9736 33.7795L38.3112 34.5239C38.6217 34.2948 38.945 34.0811 39.2784 33.8876C39.6003 33.7069 39.9312 33.5428 40.2697 33.3964L40.7889 31.0015C40.8507 30.718 41.0075 30.4641 41.2334 30.2819C41.4593 30.0998 41.7407 30.0003 42.0309 30H46.663C46.9531 30.0003 47.2345 30.0998 47.4604 30.2819C47.6863 30.4641 47.8431 30.718 47.905 31.0015L48.4292 33.3977C48.7856 33.5555 49.1342 33.7324 49.4715 33.9296C49.7858 34.1116 50.0899 34.3114 50.3826 34.5264L52.7215 33.782C52.9981 33.6941 53.2963 33.7033 53.5669 33.8082C53.8375 33.913 54.0641 34.1072 54.2092 34.3585L56.5252 38.3708C56.8204 38.8887 56.7186 39.5441 56.2796 39.9475L54.4662 41.6018C54.5487 42.3512 54.5487 43.1074 54.4662 43.8568L56.2796 45.5111C56.7186 45.9157 56.8204 46.5698 56.5252 47.0878L54.2092 51.1001C54.064 51.3517 53.8372 51.546 53.5664 51.6509C53.2955 51.7557 52.997 51.7648 52.7203 51.6766L50.3826 50.9321C49.7758 51.3792 49.121 51.7574 48.4305 52.0596L47.905 54.4507C47.8429 54.734 47.6859 54.9876 47.4601 55.1695C47.2342 55.3514 46.953 55.4507 46.663 55.4509ZM44.3418 37.6353C42.9918 37.6353 41.6971 38.1716 40.7425 39.1262C39.7879 40.0808 39.2516 41.3755 39.2516 42.7255C39.2516 44.0755 39.7879 45.3702 40.7425 46.3248C41.6971 47.2794 42.9918 47.8157 44.3418 47.8157C45.6918 47.8157 46.9865 47.2794 47.9411 46.3248C48.8957 45.3702 49.432 44.0755 49.432 42.7255C49.432 41.3755 48.8957 40.0808 47.9411 39.1262C46.9865 38.1716 45.6918 37.6353 44.3418 37.6353Z" fill="#0070FF"/>
<path d="M258 57C258 54.2386 260.239 52 263 52H283C285.761 52 288 54.2386 288 57V67C288 75.2843 281.284 82 273 82H263C260.239 82 258 79.7614 258 77V57Z" fill="#0070FF"/>
<g clip-path="url(#clip0_85_328)">
<path d="M277 60L282 65L277 70" stroke="white" stroke-width="2" stroke-linecap="round" stroke-linejoin="round"/>
<path d="M282 65H274C268.477 65 264 69.477 264 75V76" stroke="white" stroke-width="2" stroke-linecap="round" stroke-linejoin="round"/>
</g>
<path d="M76.88 48.16H71.06L70.06 51H67.68L72.66 37.08H75.3L80.28 51H77.88L76.88 48.16ZM76.24 46.3L73.98 39.84L71.7 46.3H76.24ZM86.7453 51.18C85.8786 51.18 85.0986 51.0267 84.4053 50.72C83.7253 50.4 83.1853 49.9733 82.7853 49.44C82.3853 48.8933 82.172 48.2867 82.1453 47.62H84.5053C84.5453 48.0867 84.7653 48.48 85.1653 48.8C85.5786 49.1067 86.092 49.26 86.7053 49.26C87.3453 49.26 87.8386 49.14 88.1853 48.9C88.5453 48.6467 88.7253 48.3267 88.7253 47.94C88.7253 47.5267 88.5253 47.22 88.1253 47.02C87.7386 46.82 87.1186 46.6 86.2653 46.36C85.4386 46.1333 84.7653 45.9133 84.2453 45.7C83.7253 45.4867 83.272 45.16 82.8853 44.72C82.512 44.28 82.3253 43.7 82.3253 42.98C82.3253 42.3933 82.4986 41.86 82.8453 41.38C83.192 40.8867 83.6853 40.5 84.3253 40.22C84.9786 39.94 85.7253 39.8 86.5653 39.8C87.8186 39.8 88.8253 40.12 89.5853 40.76C90.3586 41.3867 90.772 42.2467 90.8253 43.34H88.5453C88.5053 42.8467 88.3053 42.4533 87.9453 42.16C87.5853 41.8667 87.0986 41.72 86.4853 41.72C85.8853 41.72 85.4253 41.8333 85.1053 42.06C84.7853 42.2867 84.6253 42.5867 84.6253 42.96C84.6253 43.2533 84.732 43.5 84.9453 43.7C85.1586 43.9 85.4186 44.06 85.7253 44.18C86.032 44.2867 86.4853 44.4267 87.0853 44.6C87.8853 44.8133 88.5386 45.0333 89.0453 45.26C89.5653 45.4733 90.012 45.7933 90.3853 46.22C90.7586 46.6467 90.952 47.2133 90.9653 47.92C90.9653 48.5467 90.792 49.1067 90.4453 49.6C90.0986 50.0933 89.6053 50.48 88.9653 50.76C88.3386 51.04 87.5986 51.18 86.7453 51.18ZM97.7289 51.18C96.8622 51.18 96.0822 51.0267 95.3889 50.72C94.7089 50.4 94.1689 49.9733 93.7689 49.44C93.3689 48.8933 93.1556 48.2867 93.1289 47.62H95.4889C95.5289 48.0867 95.7489 48.48 96.1489 48.8C96.5622 49.1067 97.0756 49.26 97.6889 49.26C98.3289 49.26 98.8222 49.14 99.1689 48.9C99.5289 48.6467 99.7089 48.3267 99.7089 47.94C99.7089 47.5267 99.5089 47.22 99.1089 47.02C98.7222 46.82 98.1022 46.6 97.2489 46.36C96.4222 46.1333 95.7489 45.9133 95.2289 45.7C94.7089 45.4867 94.2556 45.16 93.8689 44.72C93.4956 44.28 93.3089 43.7 93.3089 42.98C93.3089 42.3933 93.4822 41.86 93.8289 41.38C94.1756 40.8867 94.6689 40.5 95.3089 40.22C95.9622 39.94 96.7089 39.8 97.5489 39.8C98.8022 39.8 99.8089 40.12 100.569 40.76C101.342 41.3867 101.756 42.2467 101.809 43.34H99.5289C99.4889 42.8467 99.2889 42.4533 98.9289 42.16C98.5689 41.8667 98.0822 41.72 97.4689 41.72C96.8689 41.72 96.4089 41.8333 96.0889 42.06C95.7689 42.2867 95.6089 42.5867 95.6089 42.96C95.6089 43.2533 95.7156 43.5 95.9289 43.7C96.1422 43.9 96.4022 44.06 96.7089 44.18C97.0156 44.2867 97.4689 44.4267 98.0689 44.6C98.8689 44.8133 99.5222 45.0333 100.029 45.26C100.549 45.4733 100.996 45.7933 101.369 46.22C101.742 46.6467 101.936 47.2133 101.949 47.92C101.949 48.5467 101.776 49.1067 101.429 49.6C101.082 50.0933 100.589 50.48 99.9489 50.76C99.3222 51.04 98.5822 51.18 97.7289 51.18ZM114.813 45.22C114.813 45.6333 114.786 46.0067 114.733 46.34H106.313C106.379 47.22 106.706 47.9267 107.293 48.46C107.879 48.9933 108.599 49.26 109.453 49.26C110.679 49.26 111.546 48.7467 112.053 47.72H114.513C114.179 48.7333 113.573 49.5667 112.693 50.22C111.826 50.86 110.746 51.18 109.453 51.18C108.399 51.18 107.453 50.9467 106.613 50.48C105.786 50 105.133 49.3333 104.653 48.48C104.186 47.6133 103.953 46.6133 103.953 45.48C103.953 44.3467 104.179 43.3533 104.633 42.5C105.099 41.6333 105.746 40.9667 106.573 40.5C107.413 40.0333 108.373 39.8 109.453 39.8C110.493 39.8 111.419 40.0267 112.233 40.48C113.046 40.9333 113.679 41.5733 114.133 42.4C114.586 43.2133 114.813 44.1533 114.813 45.22ZM112.433 44.5C112.419 43.66 112.119 42.9867 111.533 42.48C110.946 41.9733 110.219 41.72 109.353 41.72C108.566 41.72 107.893 41.9733 107.333 42.48C106.773 42.9733 106.439 43.6467 106.333 44.5H112.433ZM120.016 41.84V47.94C120.016 48.3533 120.11 48.6533 120.296 48.84C120.496 49.0133 120.83 49.1 121.296 49.1H122.696V51H120.896C119.87 51 119.083 50.76 118.536 50.28C117.99 49.8 117.716 49.02 117.716 47.94V41.84H116.416V39.98H117.716V37.24H120.016V39.98H122.696V41.84H120.016ZM135.173 51.14C134.24 51.14 133.4 50.98 132.653 50.66C131.906 50.3267 131.32 49.86 130.893 49.26C130.466 48.66 130.253 47.96 130.253 47.16H132.693C132.746 47.76 132.98 48.2533 133.393 48.64C133.82 49.0267 134.413 49.22 135.173 49.22C135.96 49.22 136.573 49.0333 137.013 48.66C137.453 48.2733 137.673 47.78 137.673 47.18C137.673 46.7133 137.533 46.3333 137.253 46.04C136.986 45.7467 136.646 45.52 136.233 45.36C135.833 45.2 135.273 45.0267 134.553 44.84C133.646 44.6 132.906 44.36 132.333 44.12C131.773 43.8667 131.293 43.48 130.893 42.96C130.493 42.44 130.293 41.7467 130.293 40.88C130.293 40.08 130.493 39.38 130.893 38.78C131.293 38.18 131.853 37.72 132.573 37.4C133.293 37.08 134.126 36.92 135.073 36.92C136.42 36.92 137.52 37.26 138.373 37.94C139.24 38.6067 139.72 39.5267 139.813 40.7H137.293C137.253 40.1933 137.013 39.76 136.573 39.4C136.133 39.04 135.553 38.86 134.833 38.86C134.18 38.86 133.646 39.0267 133.233 39.36C132.82 39.6933 132.613 40.1733 132.613 40.8C132.613 41.2267 132.74 41.58 132.993 41.86C133.26 42.1267 133.593 42.34 133.993 42.5C134.393 42.66 134.94 42.8333 135.633 43.02C136.553 43.2733 137.3 43.5267 137.873 43.78C138.46 44.0333 138.953 44.4267 139.353 44.96C139.766 45.48 139.973 46.18 139.973 47.06C139.973 47.7667 139.78 48.4333 139.393 49.06C139.02 49.6867 138.466 50.1933 137.733 50.58C137.013 50.9533 136.16 51.14 135.173 51.14ZM153.063 45.22C153.063 45.6333 153.037 46.0067 152.983 46.34H144.563C144.63 47.22 144.957 47.9267 145.543 48.46C146.13 48.9933 146.85 49.26 147.703 49.26C148.93 49.26 149.797 48.7467 150.303 47.72H152.763C152.43 48.7333 151.823 49.5667 150.943 50.22C150.077 50.86 148.997 51.18 147.703 51.18C146.65 51.18 145.703 50.9467 144.863 50.48C144.037 50 143.383 49.3333 142.903 48.48C142.437 47.6133 142.203 46.6133 142.203 45.48C142.203 44.3467 142.43 43.3533 142.883 42.5C143.35 41.6333 143.997 40.9667 144.823 40.5C145.663 40.0333 146.623 39.8 147.703 39.8C148.743 39.8 149.67 40.0267 150.483 40.48C151.297 40.9333 151.93 41.5733 152.383 42.4C152.837 43.2133 153.063 44.1533 153.063 45.22ZM150.683 44.5C150.67 43.66 150.37 42.9867 149.783 42.48C149.197 41.9733 148.47 41.72 147.603 41.72C146.817 41.72 146.143 41.9733 145.583 42.48C145.023 42.9733 144.69 43.6467 144.583 44.5H150.683ZM158.267 41.84V47.94C158.267 48.3533 158.36 48.6533 158.547 48.84C158.747 49.0133 159.08 49.1 159.547 49.1H160.947V51H159.147C158.12 51 157.334 50.76 156.787 50.28C156.24 49.8 155.967 49.02 155.967 47.94V41.84H154.667V39.98H155.967V37.24H158.267V39.98H160.947V41.84H158.267ZM166.008 41.84V47.94C166.008 48.3533 166.102 48.6533 166.288 48.84C166.488 49.0133 166.822 49.1 167.288 49.1H168.688V51H166.888C165.862 51 165.075 50.76 164.528 50.28C163.982 49.8 163.708 49.02 163.708 47.94V41.84H162.408V39.98H163.708V37.24H166.008V39.98H168.688V41.84H166.008ZM172.25 38.52C171.837 38.52 171.49 38.38 171.21 38.1C170.93 37.82 170.79 37.4733 170.79 37.06C170.79 36.6467 170.93 36.3 171.21 36.02C171.49 35.74 171.837 35.6 172.25 35.6C172.65 35.6 172.99 35.74 173.27 36.02C173.55 36.3 173.69 36.6467 173.69 37.06C173.69 37.4733 173.55 37.82 173.27 38.1C172.99 38.38 172.65 38.52 172.25 38.52ZM173.37 39.98V51H171.09V39.98H173.37ZM182.223 39.8C183.09 39.8 183.863 39.98 184.543 40.34C185.237 40.7 185.777 41.2333 186.163 41.94C186.55 42.6467 186.743 43.5 186.743 44.5V51H184.483V44.84C184.483 43.8533 184.237 43.1 183.743 42.58C183.25 42.0467 182.577 41.78 181.723 41.78C180.87 41.78 180.19 42.0467 179.683 42.58C179.19 43.1 178.943 43.8533 178.943 44.84V51H176.663V39.98H178.943V41.24C179.317 40.7867 179.79 40.4333 180.363 40.18C180.95 39.9267 181.57 39.8 182.223 39.8ZM194.392 39.8C195.245 39.8 195.998 39.9733 196.652 40.32C197.318 40.6533 197.838 41.0733 198.212 41.58V39.98H200.512V51.18C200.512 52.1933 200.298 53.0933 199.872 53.88C199.445 54.68 198.825 55.3067 198.012 55.76C197.212 56.2133 196.252 56.44 195.132 56.44C193.638 56.44 192.398 56.0867 191.412 55.38C190.425 54.6867 189.865 53.74 189.732 52.54H191.992C192.165 53.1133 192.532 53.5733 193.092 53.92C193.665 54.28 194.345 54.46 195.132 54.46C196.052 54.46 196.792 54.18 197.352 53.62C197.925 53.06 198.212 52.2467 198.212 51.18V49.34C197.825 49.86 197.298 50.3 196.632 50.66C195.978 51.0067 195.232 51.18 194.392 51.18C193.432 51.18 192.552 50.94 191.752 50.46C190.965 49.9667 190.338 49.2867 189.872 48.42C189.418 47.54 189.192 46.5467 189.192 45.44C189.192 44.3333 189.418 43.3533 189.872 42.5C190.338 41.6467 190.965 40.9867 191.752 40.52C192.552 40.04 193.432 39.8 194.392 39.8ZM198.212 45.48C198.212 44.72 198.052 44.06 197.732 43.5C197.425 42.94 197.018 42.5133 196.512 42.22C196.005 41.9267 195.458 41.78 194.872 41.78C194.285 41.78 193.738 41.9267 193.232 42.22C192.725 42.5 192.312 42.92 191.992 43.48C191.685 44.0267 191.532 44.68 191.532 45.44C191.532 46.2 191.685 46.8667 191.992 47.44C192.312 48.0133 192.725 48.4533 193.232 48.76C193.752 49.0533 194.298 49.2 194.872 49.2C195.458 49.2 196.005 49.0533 196.512 48.76C197.018 48.4667 197.425 48.04 197.732 47.48C198.052 46.9067 198.212 46.24 198.212 45.48ZM207.806 51.18C206.94 51.18 206.16 51.0267 205.466 50.72C204.786 50.4 204.246 49.9733 203.846 49.44C203.446 48.8933 203.233 48.2867 203.206 47.62H205.566C205.606 48.0867 205.826 48.48 206.226 48.8C206.64 49.1067 207.153 49.26 207.766 49.26C208.406 49.26 208.9 49.14 209.246 48.9C209.606 48.6467 209.786 48.3267 209.786 47.94C209.786 47.5267 209.586 47.22 209.186 47.02C208.8 46.82 208.18 46.6 207.326 46.36C206.5 46.1333 205.826 45.9133 205.306 45.7C204.786 45.4867 204.333 45.16 203.946 44.72C203.573 44.28 203.386 43.7 203.386 42.98C203.386 42.3933 203.56 41.86 203.906 41.38C204.253 40.8867 204.746 40.5 205.386 40.22C206.04 39.94 206.786 39.8 207.626 39.8C208.88 39.8 209.886 40.12 210.646 40.76C211.42 41.3867 211.833 42.2467 211.886 43.34H209.606C209.566 42.8467 209.366 42.4533 209.006 42.16C208.646 41.8667 208.16 41.72 207.546 41.72C206.946 41.72 206.486 41.8333 206.166 42.06C205.846 42.2867 205.686 42.5867 205.686 42.96C205.686 43.2533 205.793 43.5 206.006 43.7C206.22 43.9 206.48 44.06 206.786 44.18C207.093 44.2867 207.546 44.4267 208.146 44.6C208.946 44.8133 209.6 45.0333 210.106 45.26C210.626 45.4733 211.073 45.7933 211.446 46.22C211.82 46.6467 212.013 47.2133 212.026 47.92C212.026 48.5467 211.853 49.1067 211.506 49.6C211.16 50.0933 210.666 50.48 210.026 50.76C209.4 51.04 208.66 51.18 207.806 51.18Z" fill="black"/>
</mask>
<g mask="url(#mask0_85_328)">
<path d="M261.31 -10H243.667C241.899 -10 240.203 -9.29762 238.953 -8.04738C237.702 -6.79714 237 -5.10144 237 -3.33333V36.6667C237 38.4348 237.702 40.1305 238.953 41.3807C240.203 42.631 241.899 43.3333 243.667 43.3333H270.333C272.101 43.3333 273.797 42.631 275.047 41.3807C276.298 40.1305 277 38.4348 277 36.6667V5.69C277 4.80602 276.648 3.95831 276.023 3.33333L263.667 -9.02333C263.042 -9.6485 262.194 -9.99981 261.31 -10V-10ZM262 1.66667V-5L272 5H265.333C264.449 5 263.601 4.64881 262.976 4.02369C262.351 3.39857 262 2.55072 262 1.66667ZM263.667 35V15C263.667 14.558 263.842 14.134 264.155 13.8215C264.467 13.5089 264.891 13.3333 265.333 13.3333H268.667C269.109 13.3333 269.533 13.5089 269.845 13.8215C270.158 14.134 270.333 14.558 270.333 15V35C270.333 35.442 270.158 35.866 269.845 36.1785C269.533 36.4911 269.109 36.6667 268.667 36.6667H265.333C264.891 36.6667 264.467 36.4911 264.155 36.1785C263.842 35.866 263.667 35.442 263.667 35ZM255.333 36.6667C254.891 36.6667 254.467 36.4911 254.155 36.1785C253.842 35.866 253.667 35.442 253.667 35V21.6667C253.667 21.2246 253.842 20.8007 254.155 20.4882C254.467 20.1756 254.891 20 255.333 20H258.667C259.109 20 259.533 20.1756 259.845 20.4882C260.158 20.8007 260.333 21.2246 260.333 21.6667V35C260.333 35.442 260.158 35.866 259.845 36.1785C259.533 36.4911 259.109 36.6667 258.667 36.6667H255.333ZM245.333 36.6667C244.891 36.6667 244.467 36.4911 244.155 36.1785C243.842 35.866 243.667 35.442 243.667 35V28.3333C243.667 27.8913 243.842 27.4674 244.155 27.1548C244.467 26.8423 244.891 26.6667 245.333 26.6667H248.667C249.109 26.6667 249.533 26.8423 249.845 27.1548C250.158 27.4674 250.333 27.8913 250.333 28.3333V35C250.333 35.442 250.158 35.866 249.845 36.1785C249.533 36.4911 249.109 36.6667 248.667 36.6667H245.333Z" fill="#B7D7FF"/>
</g>
<defs>
<filter id="filter0_d_85_328" x="0" y="0" width="306" height="100" filterUnits="userSpaceOnUse" color-interpolation-filters="sRGB">
<feFlood flood-opacity="0" result="BackgroundImageFix"/>
<feColorMatrix in="SourceAlpha" type="matrix" values="0 0 0 0 0 0 0 0 0 0 0 0 0 0 0 0 0 0 127 0" result="hardAlpha"/>
<feOffset dx="8" dy="8"/>
<feGaussianBlur stdDeviation="5"/>
<feComposite in2="hardAlpha" operator="out"/>
<feColorMatrix type="matrix" values="0 0 0 0 0 0 0 0 0 0 0 0 0 0 0 0 0 0 0.1 0"/>
<feBlend mode="normal" in2="BackgroundImageFix" result="effect1_dropShadow_85_328"/>
<feBlend mode="normal" in="SourceGraphic" in2="effect1_dropShadow_85_328" result="shape"/>
</filter>
<clipPath id="clip0_85_328">
<rect width="24" height="24" fill="white" transform="translate(261 55)"/>
</clipPath>
</defs>
</svg>
