<svg width="306" height="100" viewBox="0 0 306 100" fill="none" xmlns="http://www.w3.org/2000/svg">
<g filter="url(#filter0_d_85_308)">
<rect x="2" y="2" width="286" height="80" rx="20" fill="#F4FAFF"/>
<rect x="26" y="25" width="35" height="35" rx="10" fill="#DCECFF"/>
<path d="M76.88 48.16H71.06L70.06 51H67.68L72.66 37.08H75.3L80.28 51H77.88L76.88 48.16ZM76.24 46.3L73.98 39.84L71.7 46.3H76.24ZM85.0253 36.2V51H82.7453V36.2H85.0253ZM98.4188 45.22C98.4188 45.6333 98.3921 46.0067 98.3388 46.34H89.9188C89.9854 47.22 90.3121 47.9267 90.8988 48.46C91.4854 48.9933 92.2054 49.26 93.0588 49.26C94.2854 49.26 95.1521 48.7467 95.6588 47.72H98.1188C97.7854 48.7333 97.1788 49.5667 96.2988 50.22C95.4321 50.86 94.3521 51.18 93.0588 51.18C92.0054 51.18 91.0588 50.9467 90.2188 50.48C89.3921 50 88.7388 49.3333 88.2588 48.48C87.7921 47.6133 87.5588 46.6133 87.5588 45.48C87.5588 44.3467 87.7854 43.3533 88.2388 42.5C88.7054 41.6333 89.3521 40.9667 90.1788 40.5C91.0188 40.0333 91.9788 39.8 93.0588 39.8C94.0988 39.8 95.0254 40.0267 95.8388 40.48C96.6521 40.9333 97.2854 41.5733 97.7388 42.4C98.1921 43.2133 98.4188 44.1533 98.4188 45.22ZM96.0388 44.5C96.0254 43.66 95.7254 42.9867 95.1388 42.48C94.5521 41.9733 93.8254 41.72 92.9588 41.72C92.1721 41.72 91.4988 41.9733 90.9388 42.48C90.3788 42.9733 90.0454 43.6467 89.9388 44.5H96.0388ZM103.243 41.58C103.576 41.02 104.016 40.5867 104.563 40.28C105.123 39.96 105.783 39.8 106.543 39.8V42.16H105.963C105.069 42.16 104.389 42.3867 103.923 42.84C103.469 43.2933 103.243 44.08 103.243 45.2V51H100.963V39.98H103.243V41.58ZM111.598 41.84V47.94C111.598 48.3533 111.692 48.6533 111.878 48.84C112.078 49.0133 112.412 49.1 112.878 49.1H114.278V51H112.478C111.452 51 110.665 50.76 110.118 50.28C109.572 49.8 109.298 49.02 109.298 47.94V41.84H107.998V39.98H109.298V37.24H111.598V39.98H114.278V41.84H111.598ZM120.68 51.18C119.813 51.18 119.033 51.0267 118.34 50.72C117.66 50.4 117.12 49.9733 116.72 49.44C116.32 48.8933 116.106 48.2867 116.08 47.62H118.44C118.48 48.0867 118.7 48.48 119.1 48.8C119.513 49.1067 120.026 49.26 120.64 49.26C121.28 49.26 121.773 49.14 122.12 48.9C122.48 48.6467 122.66 48.3267 122.66 47.94C122.66 47.5267 122.46 47.22 122.06 47.02C121.673 46.82 121.053 46.6 120.2 46.36C119.373 46.1333 118.7 45.9133 118.18 45.7C117.66 45.4867 117.206 45.16 116.82 44.72C116.446 44.28 116.26 43.7 116.26 42.98C116.26 42.3933 116.433 41.86 116.78 41.38C117.126 40.8867 117.62 40.5 118.26 40.22C118.913 39.94 119.66 39.8 120.5 39.8C121.753 39.8 122.76 40.12 123.52 40.76C124.293 41.3867 124.706 42.2467 124.76 43.34H122.48C122.44 42.8467 122.24 42.4533 121.88 42.16C121.52 41.8667 121.033 41.72 120.42 41.72C119.82 41.72 119.36 41.8333 119.04 42.06C118.72 42.2867 118.56 42.5867 118.56 42.96C118.56 43.2533 118.666 43.5 118.88 43.7C119.093 43.9 119.353 44.06 119.66 44.18C119.966 44.2867 120.42 44.4267 121.02 44.6C121.82 44.8133 122.473 45.0333 122.98 45.26C123.5 45.4733 123.946 45.7933 124.32 46.22C124.693 46.6467 124.886 47.2133 124.9 47.92C124.9 48.5467 124.726 49.1067 124.38 49.6C124.033 50.0933 123.54 50.48 122.9 50.76C122.273 51.04 121.533 51.18 120.68 51.18Z" fill="#73767E"/>
<path d="M39.458 52.8154C39.4585 53.1728 39.5642 53.5228 39.7625 53.8205L40.7335 55.2802C40.8994 55.5297 41.1244 55.7343 41.3885 55.8759C41.6526 56.0174 41.9475 56.0915 42.2472 56.0915H45.7534C46.053 56.0915 46.348 56.0174 46.6121 55.8759C46.8762 55.7343 47.1012 55.5297 47.267 55.2802L48.2381 53.8205C48.4363 53.5227 48.5422 53.1731 48.5426 52.8154L48.5449 50.6364H39.4551L39.458 52.8154ZM34 37C34 39.5211 34.9347 41.8211 36.475 43.5785C37.4136 44.6495 38.8818 46.887 39.4415 48.7745C39.4437 48.7893 39.4455 48.804 39.4477 48.8188H48.5523C48.5545 48.804 48.5563 48.7898 48.5585 48.7745C49.1182 46.887 50.5864 44.6495 51.525 43.5785C53.0653 41.8211 54 39.5211 54 37C54 31.4665 49.5063 26.983 43.9688 27C38.1727 27.0177 34 31.7143 34 37ZM44 32.4546C41.4938 32.4546 39.4545 34.4938 39.4545 37C39.4545 37.5023 39.0477 37.9091 38.5455 37.9091C38.0432 37.9091 37.6364 37.5023 37.6364 37C37.6364 33.491 40.4909 30.6364 44 30.6364C44.5023 30.6364 44.9091 31.0432 44.9091 31.5455C44.9091 32.0478 44.5023 32.4546 44 32.4546Z" fill="#0070FF"/>
</g>
<mask id="mask0_85_308" style="mask-type:alpha" maskUnits="userSpaceOnUse" x="1" y="2" width="286" height="80">
<rect x="1" y="2" width="286" height="80" rx="20" fill="#F4FAFF"/>
<rect x="25" y="25" width="35" height="35" rx="10" fill="#DCECFF"/>
<path d="M45.663 55.4509H41.0309C40.7407 55.451 40.4591 55.3518 40.233 55.1699C40.0069 54.988 39.8497 54.7342 39.7876 54.4507L39.2697 52.0532C38.5788 51.7505 37.9236 51.3719 37.3163 50.9245L34.9786 51.6689C34.7019 51.7572 34.4034 51.7481 34.1326 51.6432C33.8617 51.5384 33.6349 51.344 33.4898 51.0925L31.1686 47.0827C31.025 46.8309 30.9711 46.5378 31.0157 46.2514C31.0603 45.965 31.2008 45.7022 31.4142 45.506L33.2276 43.8517C33.1452 43.1023 33.1452 42.3461 33.2276 41.5967L31.4142 39.9462C31.2005 39.75 31.0599 39.4869 31.0152 39.2002C30.9706 38.9135 31.0247 38.6202 31.1686 38.3683L33.4847 34.3559C33.6298 34.1044 33.8566 33.91 34.1275 33.8052C34.3983 33.7003 34.6969 33.6912 34.9736 33.7795L37.3112 34.5239C37.6217 34.2948 37.945 34.0811 38.2784 33.8876C38.6003 33.7069 38.9312 33.5428 39.2697 33.3964L39.7889 31.0015C39.8507 30.718 40.0075 30.4641 40.2334 30.2819C40.4593 30.0998 40.7407 30.0003 41.0309 30H45.663C45.9531 30.0003 46.2345 30.0998 46.4604 30.2819C46.6863 30.4641 46.8431 30.718 46.905 31.0015L47.4292 33.3977C47.7856 33.5555 48.1342 33.7324 48.4715 33.9296C48.7858 34.1116 49.0899 34.3114 49.3826 34.5264L51.7215 33.782C51.9981 33.6941 52.2963 33.7033 52.5669 33.8082C52.8375 33.913 53.0641 34.1072 53.2092 34.3585L55.5252 38.3708C55.8204 38.8887 55.7186 39.5441 55.2796 39.9475L53.4662 41.6018C53.5487 42.3512 53.5487 43.1074 53.4662 43.8568L55.2796 45.5111C55.7186 45.9157 55.8204 46.5698 55.5252 47.0878L53.2092 51.1001C53.064 51.3517 52.8372 51.546 52.5664 51.6509C52.2955 51.7557 51.997 51.7648 51.7203 51.6766L49.3826 50.9321C48.7758 51.3792 48.121 51.7574 47.4305 52.0596L46.905 54.4507C46.8429 54.734 46.6859 54.9876 46.4601 55.1695C46.2342 55.3514 45.953 55.4507 45.663 55.4509ZM43.3418 37.6353C41.9918 37.6353 40.6971 38.1716 39.7425 39.1262C38.7879 40.0808 38.2516 41.3755 38.2516 42.7255C38.2516 44.0755 38.7879 45.3702 39.7425 46.3248C40.6971 47.2794 41.9918 47.8157 43.3418 47.8157C44.6918 47.8157 45.9865 47.2794 46.9411 46.3248C47.8957 45.3702 48.432 44.0755 48.432 42.7255C48.432 41.3755 47.8957 40.0808 46.9411 39.1262C45.9865 38.1716 44.6918 37.6353 43.3418 37.6353Z" fill="#0070FF"/>
<path d="M257 57C257 54.2386 259.239 52 262 52H282C284.761 52 287 54.2386 287 57V67C287 75.2843 280.284 82 272 82H262C259.239 82 257 79.7614 257 77V57Z" fill="#0070FF"/>
<g clip-path="url(#clip0_85_308)">
<path d="M270.667 59.375L274 63.75L270.667 68.125" stroke="white" stroke-width="2" stroke-linecap="round" stroke-linejoin="round"/>
<path d="M274 63.75H268.667C264.985 63.75 262 67.6674 262 72.5V73.375" stroke="white" stroke-width="2" stroke-linecap="round" stroke-linejoin="round"/>
</g>
<path d="M75.88 48.16H70.06L69.06 51H66.68L71.66 37.08H74.3L79.28 51H76.88L75.88 48.16ZM75.24 46.3L72.98 39.84L70.7 46.3H75.24ZM85.7453 51.18C84.8786 51.18 84.0986 51.0267 83.4053 50.72C82.7253 50.4 82.1853 49.9733 81.7853 49.44C81.3853 48.8933 81.172 48.2867 81.1453 47.62H83.5053C83.5453 48.0867 83.7653 48.48 84.1653 48.8C84.5786 49.1067 85.092 49.26 85.7053 49.26C86.3453 49.26 86.8386 49.14 87.1853 48.9C87.5453 48.6467 87.7253 48.3267 87.7253 47.94C87.7253 47.5267 87.5253 47.22 87.1253 47.02C86.7386 46.82 86.1186 46.6 85.2653 46.36C84.4386 46.1333 83.7653 45.9133 83.2453 45.7C82.7253 45.4867 82.272 45.16 81.8853 44.72C81.512 44.28 81.3253 43.7 81.3253 42.98C81.3253 42.3933 81.4986 41.86 81.8453 41.38C82.192 40.8867 82.6853 40.5 83.3253 40.22C83.9786 39.94 84.7253 39.8 85.5653 39.8C86.8186 39.8 87.8253 40.12 88.5853 40.76C89.3586 41.3867 89.772 42.2467 89.8253 43.34H87.5453C87.5053 42.8467 87.3053 42.4533 86.9453 42.16C86.5853 41.8667 86.0986 41.72 85.4853 41.72C84.8853 41.72 84.4253 41.8333 84.1053 42.06C83.7853 42.2867 83.6253 42.5867 83.6253 42.96C83.6253 43.2533 83.732 43.5 83.9453 43.7C84.1586 43.9 84.4186 44.06 84.7253 44.18C85.032 44.2867 85.4853 44.4267 86.0853 44.6C86.8853 44.8133 87.5386 45.0333 88.0453 45.26C88.5653 45.4733 89.012 45.7933 89.3853 46.22C89.7586 46.6467 89.952 47.2133 89.9653 47.92C89.9653 48.5467 89.792 49.1067 89.4453 49.6C89.0986 50.0933 88.6053 50.48 87.9653 50.76C87.3386 51.04 86.5986 51.18 85.7453 51.18ZM96.7289 51.18C95.8622 51.18 95.0822 51.0267 94.3889 50.72C93.7089 50.4 93.1689 49.9733 92.7689 49.44C92.3689 48.8933 92.1556 48.2867 92.1289 47.62H94.4889C94.5289 48.0867 94.7489 48.48 95.1489 48.8C95.5622 49.1067 96.0756 49.26 96.6889 49.26C97.3289 49.26 97.8222 49.14 98.1689 48.9C98.5289 48.6467 98.7089 48.3267 98.7089 47.94C98.7089 47.5267 98.5089 47.22 98.1089 47.02C97.7222 46.82 97.1022 46.6 96.2489 46.36C95.4222 46.1333 94.7489 45.9133 94.2289 45.7C93.7089 45.4867 93.2556 45.16 92.8689 44.72C92.4956 44.28 92.3089 43.7 92.3089 42.98C92.3089 42.3933 92.4822 41.86 92.8289 41.38C93.1756 40.8867 93.6689 40.5 94.3089 40.22C94.9622 39.94 95.7089 39.8 96.5489 39.8C97.8022 39.8 98.8089 40.12 99.5689 40.76C100.342 41.3867 100.756 42.2467 100.809 43.34H98.5289C98.4889 42.8467 98.2889 42.4533 97.9289 42.16C97.5689 41.8667 97.0822 41.72 96.4689 41.72C95.8689 41.72 95.4089 41.8333 95.0889 42.06C94.7689 42.2867 94.6089 42.5867 94.6089 42.96C94.6089 43.2533 94.7156 43.5 94.9289 43.7C95.1422 43.9 95.4022 44.06 95.7089 44.18C96.0156 44.2867 96.4689 44.4267 97.0689 44.6C97.8689 44.8133 98.5222 45.0333 99.0289 45.26C99.5489 45.4733 99.9956 45.7933 100.369 46.22C100.742 46.6467 100.936 47.2133 100.949 47.92C100.949 48.5467 100.776 49.1067 100.429 49.6C100.082 50.0933 99.5889 50.48 98.9489 50.76C98.3222 51.04 97.5822 51.18 96.7289 51.18ZM113.813 45.22C113.813 45.6333 113.786 46.0067 113.733 46.34H105.313C105.379 47.22 105.706 47.9267 106.293 48.46C106.879 48.9933 107.599 49.26 108.453 49.26C109.679 49.26 110.546 48.7467 111.053 47.72H113.513C113.179 48.7333 112.573 49.5667 111.693 50.22C110.826 50.86 109.746 51.18 108.453 51.18C107.399 51.18 106.453 50.9467 105.613 50.48C104.786 50 104.133 49.3333 103.653 48.48C103.186 47.6133 102.953 46.6133 102.953 45.48C102.953 44.3467 103.179 43.3533 103.633 42.5C104.099 41.6333 104.746 40.9667 105.573 40.5C106.413 40.0333 107.373 39.8 108.453 39.8C109.493 39.8 110.419 40.0267 111.233 40.48C112.046 40.9333 112.679 41.5733 113.133 42.4C113.586 43.2133 113.813 44.1533 113.813 45.22ZM111.433 44.5C111.419 43.66 111.119 42.9867 110.533 42.48C109.946 41.9733 109.219 41.72 108.353 41.72C107.566 41.72 106.893 41.9733 106.333 42.48C105.773 42.9733 105.439 43.6467 105.333 44.5H111.433ZM119.016 41.84V47.94C119.016 48.3533 119.11 48.6533 119.296 48.84C119.496 49.0133 119.83 49.1 120.296 49.1H121.696V51H119.896C118.87 51 118.083 50.76 117.536 50.28C116.99 49.8 116.716 49.02 116.716 47.94V41.84H115.416V39.98H116.716V37.24H119.016V39.98H121.696V41.84H119.016ZM134.173 51.14C133.24 51.14 132.4 50.98 131.653 50.66C130.906 50.3267 130.32 49.86 129.893 49.26C129.466 48.66 129.253 47.96 129.253 47.16H131.693C131.746 47.76 131.98 48.2533 132.393 48.64C132.82 49.0267 133.413 49.22 134.173 49.22C134.96 49.22 135.573 49.0333 136.013 48.66C136.453 48.2733 136.673 47.78 136.673 47.18C136.673 46.7133 136.533 46.3333 136.253 46.04C135.986 45.7467 135.646 45.52 135.233 45.36C134.833 45.2 134.273 45.0267 133.553 44.84C132.646 44.6 131.906 44.36 131.333 44.12C130.773 43.8667 130.293 43.48 129.893 42.96C129.493 42.44 129.293 41.7467 129.293 40.88C129.293 40.08 129.493 39.38 129.893 38.78C130.293 38.18 130.853 37.72 131.573 37.4C132.293 37.08 133.126 36.92 134.073 36.92C135.42 36.92 136.52 37.26 137.373 37.94C138.24 38.6067 138.72 39.5267 138.813 40.7H136.293C136.253 40.1933 136.013 39.76 135.573 39.4C135.133 39.04 134.553 38.86 133.833 38.86C133.18 38.86 132.646 39.0267 132.233 39.36C131.82 39.6933 131.613 40.1733 131.613 40.8C131.613 41.2267 131.74 41.58 131.993 41.86C132.26 42.1267 132.593 42.34 132.993 42.5C133.393 42.66 133.94 42.8333 134.633 43.02C135.553 43.2733 136.3 43.5267 136.873 43.78C137.46 44.0333 137.953 44.4267 138.353 44.96C138.766 45.48 138.973 46.18 138.973 47.06C138.973 47.7667 138.78 48.4333 138.393 49.06C138.02 49.6867 137.466 50.1933 136.733 50.58C136.013 50.9533 135.16 51.14 134.173 51.14ZM152.063 45.22C152.063 45.6333 152.037 46.0067 151.983 46.34H143.563C143.63 47.22 143.957 47.9267 144.543 48.46C145.13 48.9933 145.85 49.26 146.703 49.26C147.93 49.26 148.797 48.7467 149.303 47.72H151.763C151.43 48.7333 150.823 49.5667 149.943 50.22C149.077 50.86 147.997 51.18 146.703 51.18C145.65 51.18 144.703 50.9467 143.863 50.48C143.037 50 142.383 49.3333 141.903 48.48C141.437 47.6133 141.203 46.6133 141.203 45.48C141.203 44.3467 141.43 43.3533 141.883 42.5C142.35 41.6333 142.997 40.9667 143.823 40.5C144.663 40.0333 145.623 39.8 146.703 39.8C147.743 39.8 148.67 40.0267 149.483 40.48C150.297 40.9333 150.93 41.5733 151.383 42.4C151.837 43.2133 152.063 44.1533 152.063 45.22ZM149.683 44.5C149.67 43.66 149.37 42.9867 148.783 42.48C148.197 41.9733 147.47 41.72 146.603 41.72C145.817 41.72 145.143 41.9733 144.583 42.48C144.023 42.9733 143.69 43.6467 143.583 44.5H149.683Z" fill="black"/>
</mask>
<g mask="url(#mask0_85_308)">
<path d="M251.097 35.7585C251.098 36.4196 251.294 37.0671 251.661 37.6179L253.457 40.3183C253.764 40.7799 254.18 41.1585 254.669 41.4204C255.157 41.6823 255.703 41.8193 256.257 41.8193H262.744C263.298 41.8193 263.844 41.6823 264.332 41.4204C264.821 41.1585 265.237 40.7799 265.544 40.3183L267.34 37.6179C267.707 37.0671 267.903 36.4202 267.904 35.7585L267.908 31.7274H251.092L251.097 35.7585ZM241 6.50009C241 11.164 242.729 15.419 245.579 18.6701C247.315 20.6515 250.031 24.7909 251.067 28.2828C251.071 28.3101 251.074 28.3374 251.078 28.3648H267.922C267.926 28.3374 267.929 28.3112 267.933 28.2828C268.969 24.7909 271.685 20.6515 273.421 18.6701C276.271 15.419 278 11.164 278 6.50009C278 -3.73693 269.687 -12.0314 259.442 -11.9999C248.72 -11.9673 241 -3.27863 241 6.50009ZM259.5 -1.909C254.863 -1.909 251.091 1.86353 251.091 6.50009C251.091 7.42929 250.338 8.18191 249.409 8.18191C248.48 8.18191 247.727 7.42929 247.727 6.50009C247.727 0.00827122 253.008 -5.27264 259.5 -5.27264C260.429 -5.27264 261.182 -4.52002 261.182 -3.59082C261.182 -2.66162 260.429 -1.909 259.5 -1.909Z" fill="#B7D7FF"/>
</g>
<defs>
<filter id="filter0_d_85_308" x="0" y="0" width="306" height="100" filterUnits="userSpaceOnUse" color-interpolation-filters="sRGB">
<feFlood flood-opacity="0" result="BackgroundImageFix"/>
<feColorMatrix in="SourceAlpha" type="matrix" values="0 0 0 0 0 0 0 0 0 0 0 0 0 0 0 0 0 0 127 0" result="hardAlpha"/>
<feOffset dx="8" dy="8"/>
<feGaussianBlur stdDeviation="5"/>
<feComposite in2="hardAlpha" operator="out"/>
<feColorMatrix type="matrix" values="0 0 0 0 0 0 0 0 0 0 0 0 0 0 0 0 0 0 0.1 0"/>
<feBlend mode="normal" in2="BackgroundImageFix" result="effect1_dropShadow_85_308"/>
<feBlend mode="normal" in="SourceGraphic" in2="effect1_dropShadow_85_308" result="shape"/>
</filter>
<clipPath id="clip0_85_308">
<rect width="25" height="26" fill="white" transform="translate(260 55)"/>
</clipPath>
</defs>
</svg>
