<svg width="306" height="100" viewBox="0 0 306 100" fill="none" xmlns="http://www.w3.org/2000/svg">
<g filter="url(#filter0_d_85_226)">
<rect x="2" y="2" width="286" height="80" rx="20" fill="#F4FAFF"/>
<rect x="26" y="25" width="35" height="35" rx="10" fill="#DCECFF"/>
<path d="M56.1888 49.4702C55.716 48.9877 49.9876 46.6906 48.9481 46.2573C47.9141 45.8316 47.5016 44.6518 47.5016 44.6518C47.5016 44.6518 47.0362 44.9186 47.0362 44.1693C47.0362 43.419 47.5016 44.6518 47.967 41.7587C47.967 41.7587 49.2584 41.3831 49.0019 38.2771H48.6916C48.6916 38.2771 49.4674 34.9563 48.6916 33.8323C47.9132 32.7084 47.6084 31.9591 45.899 31.4217C44.1924 30.8853 44.813 30.9922 43.5737 31.0471C42.3325 31.101 41.2995 31.7973 41.2995 32.171C41.2995 32.171 40.5237 32.2249 40.2153 32.5466C39.905 32.8683 39.3884 34.3669 39.3884 34.7415C39.3884 35.1162 39.6467 37.6366 39.905 38.1702L39.5974 38.2742C39.3392 41.3812 40.6305 41.7577 40.6305 41.7577C41.0959 44.6508 41.5614 43.4181 41.5614 44.1683C41.5614 44.9176 41.0959 44.6508 41.0959 44.6508C41.0959 44.6508 40.6825 45.8297 39.6494 46.2563C38.6164 46.6849 32.8815 48.9877 32.4152 49.4693C31.9497 49.9612 32.0017 52.2091 32.0017 52.2091H56.6004C56.6004 52.2091 56.6579 49.9593 56.1869 49.4683L56.1888 49.4702ZM50.4074 51.5989H46.244V50.4163H50.4074V51.5989Z" fill="#0070FF"/>
<path d="M75.72 51L72.52 45.44H70.78V51H68.5V37.1H73.3C74.3667 37.1 75.2667 37.2867 76 37.66C76.7467 38.0333 77.3 38.5333 77.66 39.16C78.0333 39.7867 78.22 40.4867 78.22 41.26C78.22 42.1667 77.9533 42.9933 77.42 43.74C76.9 44.4733 76.0933 44.9733 75 45.24L78.44 51H75.72ZM70.78 43.62H73.3C74.1533 43.62 74.7933 43.4067 75.22 42.98C75.66 42.5533 75.88 41.98 75.88 41.26C75.88 40.54 75.6667 39.98 75.24 39.58C74.8133 39.1667 74.1667 38.96 73.3 38.96H70.78V43.62ZM91.5367 45.22C91.5367 45.6333 91.5101 46.0067 91.4567 46.34H83.0367C83.1034 47.22 83.4301 47.9267 84.0167 48.46C84.6034 48.9933 85.3234 49.26 86.1767 49.26C87.4034 49.26 88.2701 48.7467 88.7767 47.72H91.2367C90.9034 48.7333 90.2967 49.5667 89.4167 50.22C88.5501 50.86 87.4701 51.18 86.1767 51.18C85.1234 51.18 84.1767 50.9467 83.3367 50.48C82.5101 50 81.8567 49.3333 81.3767 48.48C80.9101 47.6133 80.6767 46.6133 80.6767 45.48C80.6767 44.3467 80.9034 43.3533 81.3567 42.5C81.8234 41.6333 82.4701 40.9667 83.2967 40.5C84.1367 40.0333 85.0967 39.8 86.1767 39.8C87.2167 39.8 88.1434 40.0267 88.9567 40.48C89.7701 40.9333 90.4034 41.5733 90.8567 42.4C91.3101 43.2133 91.5367 44.1533 91.5367 45.22ZM89.1567 44.5C89.1434 43.66 88.8434 42.9867 88.2567 42.48C87.6701 41.9733 86.9434 41.72 86.0767 41.72C85.2901 41.72 84.6167 41.9733 84.0567 42.48C83.4967 42.9733 83.1634 43.6467 83.0567 44.5H89.1567ZM98.5205 39.8C99.3738 39.8 100.127 39.9733 100.78 40.32C101.447 40.6533 101.967 41.0733 102.34 41.58V39.98H104.64V51.18C104.64 52.1933 104.427 53.0933 104 53.88C103.574 54.68 102.954 55.3067 102.14 55.76C101.34 56.2133 100.38 56.44 99.2605 56.44C97.7671 56.44 96.5271 56.0867 95.5405 55.38C94.5538 54.6867 93.9938 53.74 93.8605 52.54H96.1205C96.2938 53.1133 96.6605 53.5733 97.2205 53.92C97.7938 54.28 98.4738 54.46 99.2605 54.46C100.18 54.46 100.92 54.18 101.48 53.62C102.054 53.06 102.34 52.2467 102.34 51.18V49.34C101.954 49.86 101.427 50.3 100.76 50.66C100.107 51.0067 99.3605 51.18 98.5205 51.18C97.5605 51.18 96.6805 50.94 95.8805 50.46C95.0938 49.9667 94.4671 49.2867 94.0005 48.42C93.5471 47.54 93.3205 46.5467 93.3205 45.44C93.3205 44.3333 93.5471 43.3533 94.0005 42.5C94.4671 41.6467 95.0938 40.9867 95.8805 40.52C96.6805 40.04 97.5605 39.8 98.5205 39.8ZM102.34 45.48C102.34 44.72 102.18 44.06 101.86 43.5C101.554 42.94 101.147 42.5133 100.64 42.22C100.134 41.9267 99.5871 41.78 99.0005 41.78C98.4138 41.78 97.8671 41.9267 97.3605 42.22C96.8538 42.5 96.4405 42.92 96.1205 43.48C95.8138 44.0267 95.6605 44.68 95.6605 45.44C95.6605 46.2 95.8138 46.8667 96.1205 47.44C96.4405 48.0133 96.8538 48.4533 97.3605 48.76C97.8805 49.0533 98.4271 49.2 99.0005 49.2C99.5871 49.2 100.134 49.0533 100.64 48.76C101.147 48.4667 101.554 48.04 101.86 47.48C102.18 46.9067 102.34 46.24 102.34 45.48ZM109.095 38.52C108.682 38.52 108.335 38.38 108.055 38.1C107.775 37.82 107.635 37.4733 107.635 37.06C107.635 36.6467 107.775 36.3 108.055 36.02C108.335 35.74 108.682 35.6 109.095 35.6C109.495 35.6 109.835 35.74 110.115 36.02C110.395 36.3 110.535 36.6467 110.535 37.06C110.535 37.4733 110.395 37.82 110.115 38.1C109.835 38.38 109.495 38.52 109.095 38.52ZM110.215 39.98V51H107.935V39.98H110.215ZM117.509 51.18C116.642 51.18 115.862 51.0267 115.169 50.72C114.489 50.4 113.949 49.9733 113.549 49.44C113.149 48.8933 112.935 48.2867 112.909 47.62H115.269C115.309 48.0867 115.529 48.48 115.929 48.8C116.342 49.1067 116.855 49.26 117.469 49.26C118.109 49.26 118.602 49.14 118.949 48.9C119.309 48.6467 119.489 48.3267 119.489 47.94C119.489 47.5267 119.289 47.22 118.889 47.02C118.502 46.82 117.882 46.6 117.029 46.36C116.202 46.1333 115.529 45.9133 115.009 45.7C114.489 45.4867 114.035 45.16 113.649 44.72C113.275 44.28 113.089 43.7 113.089 42.98C113.089 42.3933 113.262 41.86 113.609 41.38C113.955 40.8867 114.449 40.5 115.089 40.22C115.742 39.94 116.489 39.8 117.329 39.8C118.582 39.8 119.589 40.12 120.349 40.76C121.122 41.3867 121.535 42.2467 121.589 43.34H119.309C119.269 42.8467 119.069 42.4533 118.709 42.16C118.349 41.8667 117.862 41.72 117.249 41.72C116.649 41.72 116.189 41.8333 115.869 42.06C115.549 42.2867 115.389 42.5867 115.389 42.96C115.389 43.2533 115.495 43.5 115.709 43.7C115.922 43.9 116.182 44.06 116.489 44.18C116.795 44.2867 117.249 44.4267 117.849 44.6C118.649 44.8133 119.302 45.0333 119.809 45.26C120.329 45.4733 120.775 45.7933 121.149 46.22C121.522 46.6467 121.715 47.2133 121.729 47.92C121.729 48.5467 121.555 49.1067 121.209 49.6C120.862 50.0933 120.369 50.48 119.729 50.76C119.102 51.04 118.362 51.18 117.509 51.18ZM127.152 41.84V47.94C127.152 48.3533 127.246 48.6533 127.432 48.84C127.632 49.0133 127.966 49.1 128.432 49.1H129.832V51H128.032C127.006 51 126.219 50.76 125.672 50.28C125.126 49.8 124.852 49.02 124.852 47.94V41.84H123.552V39.98H124.852V37.24H127.152V39.98H129.832V41.84H127.152ZM134.514 41.58C134.847 41.02 135.287 40.5867 135.834 40.28C136.394 39.96 137.054 39.8 137.814 39.8V42.16H137.234C136.34 42.16 135.66 42.3867 135.194 42.84C134.74 43.2933 134.514 44.08 134.514 45.2V51H132.234V39.98H134.514V41.58ZM139.449 45.44C139.449 44.3333 139.676 43.3533 140.129 42.5C140.596 41.6467 141.223 40.9867 142.009 40.52C142.809 40.04 143.689 39.8 144.649 39.8C145.516 39.8 146.269 39.9733 146.909 40.32C147.563 40.6533 148.083 41.0733 148.469 41.58V39.98H150.769V51H148.469V49.36C148.083 49.88 147.556 50.3133 146.889 50.66C146.223 51.0067 145.463 51.18 144.609 51.18C143.663 51.18 142.796 50.94 142.009 50.46C141.223 49.9667 140.596 49.2867 140.129 48.42C139.676 47.54 139.449 46.5467 139.449 45.44ZM148.469 45.48C148.469 44.72 148.309 44.06 147.989 43.5C147.683 42.94 147.276 42.5133 146.769 42.22C146.263 41.9267 145.716 41.78 145.129 41.78C144.543 41.78 143.996 41.9267 143.489 42.22C142.983 42.5 142.569 42.92 142.249 43.48C141.943 44.0267 141.789 44.68 141.789 45.44C141.789 46.2 141.943 46.8667 142.249 47.44C142.569 48.0133 142.983 48.4533 143.489 48.76C144.009 49.0533 144.556 49.2 145.129 49.2C145.716 49.2 146.263 49.0533 146.769 48.76C147.276 48.4667 147.683 48.04 147.989 47.48C148.309 46.9067 148.469 46.24 148.469 45.48ZM156.724 41.84V47.94C156.724 48.3533 156.817 48.6533 157.004 48.84C157.204 49.0133 157.537 49.1 158.004 49.1H159.404V51H157.604C156.577 51 155.791 50.76 155.244 50.28C154.697 49.8 154.424 49.02 154.424 47.94V41.84H153.124V39.98H154.424V37.24H156.724V39.98H159.404V41.84H156.724ZM162.965 38.52C162.552 38.52 162.205 38.38 161.925 38.1C161.645 37.82 161.505 37.4733 161.505 37.06C161.505 36.6467 161.645 36.3 161.925 36.02C162.205 35.74 162.552 35.6 162.965 35.6C163.365 35.6 163.705 35.74 163.985 36.02C164.265 36.3 164.405 36.6467 164.405 37.06C164.405 37.4733 164.265 37.82 163.985 38.1C163.705 38.38 163.365 38.52 162.965 38.52ZM164.085 39.98V51H161.805V39.98H164.085ZM172.159 51.18C171.119 51.18 170.179 50.9467 169.339 50.48C168.499 50 167.839 49.3333 167.359 48.48C166.879 47.6133 166.639 46.6133 166.639 45.48C166.639 44.36 166.886 43.3667 167.379 42.5C167.872 41.6333 168.546 40.9667 169.399 40.5C170.252 40.0333 171.206 39.8 172.259 39.8C173.312 39.8 174.266 40.0333 175.119 40.5C175.972 40.9667 176.646 41.6333 177.139 42.5C177.632 43.3667 177.879 44.36 177.879 45.48C177.879 46.6 177.626 47.5933 177.119 48.46C176.612 49.3267 175.919 50 175.039 50.48C174.172 50.9467 173.212 51.18 172.159 51.18ZM172.159 49.2C172.746 49.2 173.292 49.06 173.799 48.78C174.319 48.5 174.739 48.08 175.059 47.52C175.379 46.96 175.539 46.28 175.539 45.48C175.539 44.68 175.386 44.0067 175.079 43.46C174.772 42.9 174.366 42.48 173.859 42.2C173.352 41.92 172.806 41.78 172.219 41.78C171.632 41.78 171.086 41.92 170.579 42.2C170.086 42.48 169.692 42.9 169.399 43.46C169.106 44.0067 168.959 44.68 168.959 45.48C168.959 46.6667 169.259 47.5867 169.859 48.24C170.472 48.88 171.239 49.2 172.159 49.2ZM185.993 39.8C186.859 39.8 187.633 39.98 188.313 40.34C189.006 40.7 189.546 41.2333 189.933 41.94C190.319 42.6467 190.513 43.5 190.513 44.5V51H188.253V44.84C188.253 43.8533 188.006 43.1 187.513 42.58C187.019 42.0467 186.346 41.78 185.493 41.78C184.639 41.78 183.959 42.0467 183.453 42.58C182.959 43.1 182.713 43.8533 182.713 44.84V51H180.433V39.98H182.713V41.24C183.086 40.7867 183.559 40.4333 184.133 40.18C184.719 39.9267 185.339 39.8 185.993 39.8Z" fill="#73767E"/>
</g>
<mask id="mask0_85_226" style="mask-type:alpha" maskUnits="userSpaceOnUse" x="2" y="2" width="286" height="80">
<rect x="2" y="2" width="286" height="80" rx="20" fill="#F4FAFF"/>
<rect x="26" y="25" width="35" height="35" rx="10" fill="#DCECFF"/>
<path d="M46.663 55.4509H42.0309C41.7407 55.451 41.4591 55.3518 41.233 55.1699C41.0069 54.988 40.8497 54.7342 40.7876 54.4507L40.2697 52.0532C39.5788 51.7505 38.9236 51.3719 38.3163 50.9245L35.9786 51.6689C35.7019 51.7572 35.4034 51.7481 35.1326 51.6432C34.8617 51.5384 34.6349 51.344 34.4898 51.0925L32.1686 47.0827C32.025 46.8309 31.9711 46.5378 32.0157 46.2514C32.0603 45.965 32.2008 45.7022 32.4142 45.506L34.2276 43.8517C34.1452 43.1023 34.1452 42.3461 34.2276 41.5967L32.4142 39.9462C32.2005 39.75 32.0599 39.4869 32.0152 39.2002C31.9706 38.9135 32.0247 38.6202 32.1686 38.3683L34.4847 34.3559C34.6298 34.1044 34.8566 33.91 35.1275 33.8052C35.3983 33.7003 35.6969 33.6912 35.9736 33.7795L38.3112 34.5239C38.6217 34.2948 38.945 34.0811 39.2784 33.8876C39.6003 33.7069 39.9312 33.5428 40.2697 33.3964L40.7889 31.0015C40.8507 30.718 41.0075 30.4641 41.2334 30.2819C41.4593 30.0998 41.7407 30.0003 42.0309 30H46.663C46.9531 30.0003 47.2345 30.0998 47.4604 30.2819C47.6863 30.4641 47.8431 30.718 47.905 31.0015L48.4292 33.3977C48.7856 33.5555 49.1342 33.7324 49.4715 33.9296C49.7858 34.1116 50.0899 34.3114 50.3826 34.5264L52.7215 33.782C52.9981 33.6941 53.2963 33.7033 53.5669 33.8082C53.8375 33.913 54.0641 34.1072 54.2092 34.3585L56.5252 38.3708C56.8204 38.8887 56.7186 39.5441 56.2796 39.9475L54.4662 41.6018C54.5487 42.3512 54.5487 43.1074 54.4662 43.8568L56.2796 45.5111C56.7186 45.9157 56.8204 46.5698 56.5252 47.0878L54.2092 51.1001C54.064 51.3517 53.8372 51.546 53.5664 51.6509C53.2955 51.7557 52.997 51.7648 52.7203 51.6766L50.3826 50.9321C49.7758 51.3792 49.121 51.7574 48.4305 52.0596L47.905 54.4507C47.8429 54.734 47.6859 54.9876 47.4601 55.1695C47.2342 55.3514 46.953 55.4507 46.663 55.4509ZM44.3418 37.6353C42.9918 37.6353 41.6971 38.1716 40.7425 39.1262C39.7879 40.0808 39.2516 41.3755 39.2516 42.7255C39.2516 44.0755 39.7879 45.3702 40.7425 46.3248C41.6971 47.2794 42.9918 47.8157 44.3418 47.8157C45.6918 47.8157 46.9865 47.2794 47.9411 46.3248C48.8957 45.3702 49.432 44.0755 49.432 42.7255C49.432 41.3755 48.8957 40.0808 47.9411 39.1262C46.9865 38.1716 45.6918 37.6353 44.3418 37.6353Z" fill="#0070FF"/>
<path d="M258 57C258 54.2386 260.239 52 263 52H283C285.761 52 288 54.2386 288 57V67C288 75.2843 281.284 82 273 82H263C260.239 82 258 79.7614 258 77V57Z" fill="#0070FF"/>
<g clip-path="url(#clip0_85_226)">
<path d="M271.667 59.375L275 63.75L271.667 68.125" stroke="white" stroke-width="2" stroke-linecap="round" stroke-linejoin="round"/>
<path d="M275 63.75H269.667C265.985 63.75 263 67.6674 263 72.5V73.375" stroke="white" stroke-width="2" stroke-linecap="round" stroke-linejoin="round"/>
</g>
<path d="M76.88 48.16H71.06L70.06 51H67.68L72.66 37.08H75.3L80.28 51H77.88L76.88 48.16ZM76.24 46.3L73.98 39.84L71.7 46.3H76.24ZM86.7453 51.18C85.8786 51.18 85.0986 51.0267 84.4053 50.72C83.7253 50.4 83.1853 49.9733 82.7853 49.44C82.3853 48.8933 82.172 48.2867 82.1453 47.62H84.5053C84.5453 48.0867 84.7653 48.48 85.1653 48.8C85.5786 49.1067 86.092 49.26 86.7053 49.26C87.3453 49.26 87.8386 49.14 88.1853 48.9C88.5453 48.6467 88.7253 48.3267 88.7253 47.94C88.7253 47.5267 88.5253 47.22 88.1253 47.02C87.7386 46.82 87.1186 46.6 86.2653 46.36C85.4386 46.1333 84.7653 45.9133 84.2453 45.7C83.7253 45.4867 83.272 45.16 82.8853 44.72C82.512 44.28 82.3253 43.7 82.3253 42.98C82.3253 42.3933 82.4986 41.86 82.8453 41.38C83.192 40.8867 83.6853 40.5 84.3253 40.22C84.9786 39.94 85.7253 39.8 86.5653 39.8C87.8186 39.8 88.8253 40.12 89.5853 40.76C90.3586 41.3867 90.772 42.2467 90.8253 43.34H88.5453C88.5053 42.8467 88.3053 42.4533 87.9453 42.16C87.5853 41.8667 87.0986 41.72 86.4853 41.72C85.8853 41.72 85.4253 41.8333 85.1053 42.06C84.7853 42.2867 84.6253 42.5867 84.6253 42.96C84.6253 43.2533 84.732 43.5 84.9453 43.7C85.1586 43.9 85.4186 44.06 85.7253 44.18C86.032 44.2867 86.4853 44.4267 87.0853 44.6C87.8853 44.8133 88.5386 45.0333 89.0453 45.26C89.5653 45.4733 90.012 45.7933 90.3853 46.22C90.7586 46.6467 90.952 47.2133 90.9653 47.92C90.9653 48.5467 90.792 49.1067 90.4453 49.6C90.0986 50.0933 89.6053 50.48 88.9653 50.76C88.3386 51.04 87.5986 51.18 86.7453 51.18ZM97.7289 51.18C96.8622 51.18 96.0822 51.0267 95.3889 50.72C94.7089 50.4 94.1689 49.9733 93.7689 49.44C93.3689 48.8933 93.1556 48.2867 93.1289 47.62H95.4889C95.5289 48.0867 95.7489 48.48 96.1489 48.8C96.5622 49.1067 97.0756 49.26 97.6889 49.26C98.3289 49.26 98.8222 49.14 99.1689 48.9C99.5289 48.6467 99.7089 48.3267 99.7089 47.94C99.7089 47.5267 99.5089 47.22 99.1089 47.02C98.7222 46.82 98.1022 46.6 97.2489 46.36C96.4222 46.1333 95.7489 45.9133 95.2289 45.7C94.7089 45.4867 94.2556 45.16 93.8689 44.72C93.4956 44.28 93.3089 43.7 93.3089 42.98C93.3089 42.3933 93.4822 41.86 93.8289 41.38C94.1756 40.8867 94.6689 40.5 95.3089 40.22C95.9622 39.94 96.7089 39.8 97.5489 39.8C98.8022 39.8 99.8089 40.12 100.569 40.76C101.342 41.3867 101.756 42.2467 101.809 43.34H99.5289C99.4889 42.8467 99.2889 42.4533 98.9289 42.16C98.5689 41.8667 98.0822 41.72 97.4689 41.72C96.8689 41.72 96.4089 41.8333 96.0889 42.06C95.7689 42.2867 95.6089 42.5867 95.6089 42.96C95.6089 43.2533 95.7156 43.5 95.9289 43.7C96.1422 43.9 96.4022 44.06 96.7089 44.18C97.0156 44.2867 97.4689 44.4267 98.0689 44.6C98.8689 44.8133 99.5222 45.0333 100.029 45.26C100.549 45.4733 100.996 45.7933 101.369 46.22C101.742 46.6467 101.936 47.2133 101.949 47.92C101.949 48.5467 101.776 49.1067 101.429 49.6C101.082 50.0933 100.589 50.48 99.9489 50.76C99.3222 51.04 98.5822 51.18 97.7289 51.18ZM114.813 45.22C114.813 45.6333 114.786 46.0067 114.733 46.34H106.313C106.379 47.22 106.706 47.9267 107.293 48.46C107.879 48.9933 108.599 49.26 109.453 49.26C110.679 49.26 111.546 48.7467 112.053 47.72H114.513C114.179 48.7333 113.573 49.5667 112.693 50.22C111.826 50.86 110.746 51.18 109.453 51.18C108.399 51.18 107.453 50.9467 106.613 50.48C105.786 50 105.133 49.3333 104.653 48.48C104.186 47.6133 103.953 46.6133 103.953 45.48C103.953 44.3467 104.179 43.3533 104.633 42.5C105.099 41.6333 105.746 40.9667 106.573 40.5C107.413 40.0333 108.373 39.8 109.453 39.8C110.493 39.8 111.419 40.0267 112.233 40.48C113.046 40.9333 113.679 41.5733 114.133 42.4C114.586 43.2133 114.813 44.1533 114.813 45.22ZM112.433 44.5C112.419 43.66 112.119 42.9867 111.533 42.48C110.946 41.9733 110.219 41.72 109.353 41.72C108.566 41.72 107.893 41.9733 107.333 42.48C106.773 42.9733 106.439 43.6467 106.333 44.5H112.433ZM120.016 41.84V47.94C120.016 48.3533 120.11 48.6533 120.296 48.84C120.496 49.0133 120.83 49.1 121.296 49.1H122.696V51H120.896C119.87 51 119.083 50.76 118.536 50.28C117.99 49.8 117.716 49.02 117.716 47.94V41.84H116.416V39.98H117.716V37.24H120.016V39.98H122.696V41.84H120.016ZM135.173 51.14C134.24 51.14 133.4 50.98 132.653 50.66C131.906 50.3267 131.32 49.86 130.893 49.26C130.466 48.66 130.253 47.96 130.253 47.16H132.693C132.746 47.76 132.98 48.2533 133.393 48.64C133.82 49.0267 134.413 49.22 135.173 49.22C135.96 49.22 136.573 49.0333 137.013 48.66C137.453 48.2733 137.673 47.78 137.673 47.18C137.673 46.7133 137.533 46.3333 137.253 46.04C136.986 45.7467 136.646 45.52 136.233 45.36C135.833 45.2 135.273 45.0267 134.553 44.84C133.646 44.6 132.906 44.36 132.333 44.12C131.773 43.8667 131.293 43.48 130.893 42.96C130.493 42.44 130.293 41.7467 130.293 40.88C130.293 40.08 130.493 39.38 130.893 38.78C131.293 38.18 131.853 37.72 132.573 37.4C133.293 37.08 134.126 36.92 135.073 36.92C136.42 36.92 137.52 37.26 138.373 37.94C139.24 38.6067 139.72 39.5267 139.813 40.7H137.293C137.253 40.1933 137.013 39.76 136.573 39.4C136.133 39.04 135.553 38.86 134.833 38.86C134.18 38.86 133.646 39.0267 133.233 39.36C132.82 39.6933 132.613 40.1733 132.613 40.8C132.613 41.2267 132.74 41.58 132.993 41.86C133.26 42.1267 133.593 42.34 133.993 42.5C134.393 42.66 134.94 42.8333 135.633 43.02C136.553 43.2733 137.3 43.5267 137.873 43.78C138.46 44.0333 138.953 44.4267 139.353 44.96C139.766 45.48 139.973 46.18 139.973 47.06C139.973 47.7667 139.78 48.4333 139.393 49.06C139.02 49.6867 138.466 50.1933 137.733 50.58C137.013 50.9533 136.16 51.14 135.173 51.14ZM153.063 45.22C153.063 45.6333 153.037 46.0067 152.983 46.34H144.563C144.63 47.22 144.957 47.9267 145.543 48.46C146.13 48.9933 146.85 49.26 147.703 49.26C148.93 49.26 149.797 48.7467 150.303 47.72H152.763C152.43 48.7333 151.823 49.5667 150.943 50.22C150.077 50.86 148.997 51.18 147.703 51.18C146.65 51.18 145.703 50.9467 144.863 50.48C144.037 50 143.383 49.3333 142.903 48.48C142.437 47.6133 142.203 46.6133 142.203 45.48C142.203 44.3467 142.43 43.3533 142.883 42.5C143.35 41.6333 143.997 40.9667 144.823 40.5C145.663 40.0333 146.623 39.8 147.703 39.8C148.743 39.8 149.67 40.0267 150.483 40.48C151.297 40.9333 151.93 41.5733 152.383 42.4C152.837 43.2133 153.063 44.1533 153.063 45.22ZM150.683 44.5C150.67 43.66 150.37 42.9867 149.783 42.48C149.197 41.9733 148.47 41.72 147.603 41.72C146.817 41.72 146.143 41.9733 145.583 42.48C145.023 42.9733 144.69 43.6467 144.583 44.5H150.683Z" fill="black"/>
</mask>
<g mask="url(#mask0_85_226)">
<path d="M294.907 27.7983C293.658 26.5235 278.523 20.4546 275.777 19.3098C273.045 18.185 271.955 15.068 271.955 15.068C271.955 15.068 270.726 15.7729 270.726 13.7932C270.726 11.8111 271.955 15.068 273.185 7.42436C273.185 7.42436 276.597 6.43203 275.919 -1.77402H275.099C275.099 -1.77402 277.149 -10.5475 275.099 -13.5169C273.043 -16.4864 272.237 -18.4661 267.721 -19.8858C263.212 -21.3031 264.852 -21.0206 261.578 -20.8756C258.299 -20.7332 255.569 -18.8935 255.569 -17.9062C255.569 -17.9062 253.52 -17.7637 252.705 -16.9138C251.885 -16.064 250.52 -12.1047 250.52 -11.1149C250.52 -10.125 251.203 -3.46622 251.885 -2.05647L251.072 -1.78152C250.39 6.42703 253.802 7.42186 253.802 7.42186C255.031 15.0655 256.261 11.8086 256.261 13.7907C256.261 15.7704 255.031 15.0655 255.031 15.0655C255.031 15.0655 253.939 18.18 251.21 19.3073C248.48 20.4396 233.329 26.5235 232.097 27.7958C230.867 29.0955 231.005 35.0345 231.005 35.0345H295.994C295.994 35.0345 296.146 29.0905 294.902 27.7933L294.907 27.7983ZM279.632 33.4223H268.633V30.2978H279.632V33.4223Z" fill="#B7D7FF"/>
</g>
<defs>
<filter id="filter0_d_85_226" x="0" y="0" width="306" height="100" filterUnits="userSpaceOnUse" color-interpolation-filters="sRGB">
<feFlood flood-opacity="0" result="BackgroundImageFix"/>
<feColorMatrix in="SourceAlpha" type="matrix" values="0 0 0 0 0 0 0 0 0 0 0 0 0 0 0 0 0 0 127 0" result="hardAlpha"/>
<feOffset dx="8" dy="8"/>
<feGaussianBlur stdDeviation="5"/>
<feComposite in2="hardAlpha" operator="out"/>
<feColorMatrix type="matrix" values="0 0 0 0 0 0 0 0 0 0 0 0 0 0 0 0 0 0 0.1 0"/>
<feBlend mode="normal" in2="BackgroundImageFix" result="effect1_dropShadow_85_226"/>
<feBlend mode="normal" in="SourceGraphic" in2="effect1_dropShadow_85_226" result="shape"/>
</filter>
<clipPath id="clip0_85_226">
<rect width="25" height="26" fill="white" transform="translate(261 55)"/>
</clipPath>
</defs>
</svg>
