<svg width="306" height="100" viewBox="0 0 306 100" fill="none" xmlns="http://www.w3.org/2000/svg">
<g filter="url(#filter0_d_85_266)">
<rect x="2" y="2" width="286" height="80" rx="20" fill="#F4FAFF"/>
<rect x="26" y="25" width="35" height="35" rx="10" fill="#DCECFF"/>
<path d="M42.2716 43.3978H39.0902V39.1984H42.2716V35.6989H46.0892V39.1984H49.2706V43.3978H46.0892V46.8973H42.2716V43.3978ZM44.1804 28L34 32.1994V40.7242C34 47.7932 38.3394 54.3863 44.1804 55.996C50.0214 54.3863 54.3608 47.7932 54.3608 40.7242V32.1994L44.1804 28Z" fill="#0070FF"/>
<path d="M73.08 51.14C72.1467 51.14 71.3067 50.98 70.56 50.66C69.8133 50.3267 69.2267 49.86 68.8 49.26C68.3733 48.66 68.16 47.96 68.16 47.16H70.6C70.6533 47.76 70.8867 48.2533 71.3 48.64C71.7267 49.0267 72.32 49.22 73.08 49.22C73.8667 49.22 74.48 49.0333 74.92 48.66C75.36 48.2733 75.58 47.78 75.58 47.18C75.58 46.7133 75.44 46.3333 75.16 46.04C74.8933 45.7467 74.5533 45.52 74.14 45.36C73.74 45.2 73.18 45.0267 72.46 44.84C71.5533 44.6 70.8133 44.36 70.24 44.12C69.68 43.8667 69.2 43.48 68.8 42.96C68.4 42.44 68.2 41.7467 68.2 40.88C68.2 40.08 68.4 39.38 68.8 38.78C69.2 38.18 69.76 37.72 70.48 37.4C71.2 37.08 72.0333 36.92 72.98 36.92C74.3267 36.92 75.4267 37.26 76.28 37.94C77.1467 38.6067 77.6267 39.5267 77.72 40.7H75.2C75.16 40.1933 74.92 39.76 74.48 39.4C74.04 39.04 73.46 38.86 72.74 38.86C72.0867 38.86 71.5533 39.0267 71.14 39.36C70.7267 39.6933 70.52 40.1733 70.52 40.8C70.52 41.2267 70.6467 41.58 70.9 41.86C71.1667 42.1267 71.5 42.34 71.9 42.5C72.3 42.66 72.8467 42.8333 73.54 43.02C74.46 43.2733 75.2067 43.5267 75.78 43.78C76.3667 44.0333 76.86 44.4267 77.26 44.96C77.6733 45.48 77.88 46.18 77.88 47.06C77.88 47.7667 77.6867 48.4333 77.3 49.06C76.9267 49.6867 76.3733 50.1933 75.64 50.58C74.92 50.9533 74.0667 51.14 73.08 51.14ZM90.7903 39.98L84.0303 56.18H81.6703L83.9103 50.82L79.5703 39.98H82.1103L85.2103 48.38L88.4303 39.98H90.7903ZM96.8109 51.18C95.9443 51.18 95.1643 51.0267 94.4709 50.72C93.7909 50.4 93.2509 49.9733 92.8509 49.44C92.4509 48.8933 92.2376 48.2867 92.2109 47.62H94.5709C94.6109 48.0867 94.8309 48.48 95.2309 48.8C95.6443 49.1067 96.1576 49.26 96.7709 49.26C97.4109 49.26 97.9043 49.14 98.2509 48.9C98.6109 48.6467 98.7909 48.3267 98.7909 47.94C98.7909 47.5267 98.5909 47.22 98.1909 47.02C97.8043 46.82 97.1843 46.6 96.3309 46.36C95.5043 46.1333 94.8309 45.9133 94.3109 45.7C93.7909 45.4867 93.3376 45.16 92.9509 44.72C92.5776 44.28 92.3909 43.7 92.3909 42.98C92.3909 42.3933 92.5643 41.86 92.9109 41.38C93.2576 40.8867 93.7509 40.5 94.3909 40.22C95.0443 39.94 95.7909 39.8 96.6309 39.8C97.8843 39.8 98.8909 40.12 99.6509 40.76C100.424 41.3867 100.838 42.2467 100.891 43.34H98.6109C98.5709 42.8467 98.3709 42.4533 98.0109 42.16C97.6509 41.8667 97.1643 41.72 96.5509 41.72C95.9509 41.72 95.4909 41.8333 95.1709 42.06C94.8509 42.2867 94.6909 42.5867 94.6909 42.96C94.6909 43.2533 94.7976 43.5 95.0109 43.7C95.2243 43.9 95.4843 44.06 95.7909 44.18C96.0976 44.2867 96.5509 44.4267 97.1509 44.6C97.9509 44.8133 98.6043 45.0333 99.1109 45.26C99.6309 45.4733 100.078 45.7933 100.451 46.22C100.824 46.6467 101.018 47.2133 101.031 47.92C101.031 48.5467 100.858 49.1067 100.511 49.6C100.164 50.0933 99.6709 50.48 99.0309 50.76C98.4043 51.04 97.6643 51.18 96.8109 51.18ZM106.455 41.84V47.94C106.455 48.3533 106.548 48.6533 106.735 48.84C106.935 49.0133 107.268 49.1 107.735 49.1H109.135V51H107.335C106.308 51 105.521 50.76 104.975 50.28C104.428 49.8 104.155 49.02 104.155 47.94V41.84H102.855V39.98H104.155V37.24H106.455V39.98H109.135V41.84H106.455ZM121.636 45.22C121.636 45.6333 121.609 46.0067 121.556 46.34H113.136C113.203 47.22 113.529 47.9267 114.116 48.46C114.703 48.9933 115.423 49.26 116.276 49.26C117.503 49.26 118.369 48.7467 118.876 47.72H121.336C121.003 48.7333 120.396 49.5667 119.516 50.22C118.649 50.86 117.569 51.18 116.276 51.18C115.223 51.18 114.276 50.9467 113.436 50.48C112.609 50 111.956 49.3333 111.476 48.48C111.009 47.6133 110.776 46.6133 110.776 45.48C110.776 44.3467 111.003 43.3533 111.456 42.5C111.923 41.6333 112.569 40.9667 113.396 40.5C114.236 40.0333 115.196 39.8 116.276 39.8C117.316 39.8 118.243 40.0267 119.056 40.48C119.869 40.9333 120.503 41.5733 120.956 42.4C121.409 43.2133 121.636 44.1533 121.636 45.22ZM119.256 44.5C119.243 43.66 118.943 42.9867 118.356 42.48C117.769 41.9733 117.043 41.72 116.176 41.72C115.389 41.72 114.716 41.9733 114.156 42.48C113.596 42.9733 113.263 43.6467 113.156 44.5H119.256ZM137.52 39.8C138.386 39.8 139.16 39.98 139.84 40.34C140.533 40.7 141.073 41.2333 141.46 41.94C141.86 42.6467 142.06 43.5 142.06 44.5V51H139.8V44.84C139.8 43.8533 139.553 43.1 139.06 42.58C138.566 42.0467 137.893 41.78 137.04 41.78C136.186 41.78 135.506 42.0467 135 42.58C134.506 43.1 134.26 43.8533 134.26 44.84V51H132V44.84C132 43.8533 131.753 43.1 131.26 42.58C130.766 42.0467 130.093 41.78 129.24 41.78C128.386 41.78 127.706 42.0467 127.2 42.58C126.706 43.1 126.46 43.8533 126.46 44.84V51H124.18V39.98H126.46V41.24C126.833 40.7867 127.306 40.4333 127.88 40.18C128.453 39.9267 129.066 39.8 129.72 39.8C130.6 39.8 131.386 39.9867 132.08 40.36C132.773 40.7333 133.306 41.2733 133.68 41.98C134.013 41.3133 134.533 40.7867 135.24 40.4C135.946 40 136.706 39.8 137.52 39.8ZM161.856 37.1V51H159.576V44.92H153.036V51H150.756V37.1H153.036V43.06H159.576V37.1H161.856ZM175.258 45.22C175.258 45.6333 175.231 46.0067 175.178 46.34H166.758C166.824 47.22 167.151 47.9267 167.738 48.46C168.324 48.9933 169.044 49.26 169.898 49.26C171.124 49.26 171.991 48.7467 172.498 47.72H174.958C174.624 48.7333 174.018 49.5667 173.138 50.22C172.271 50.86 171.191 51.18 169.898 51.18C168.844 51.18 167.898 50.9467 167.058 50.48C166.231 50 165.578 49.3333 165.098 48.48C164.631 47.6133 164.398 46.6133 164.398 45.48C164.398 44.3467 164.624 43.3533 165.078 42.5C165.544 41.6333 166.191 40.9667 167.018 40.5C167.858 40.0333 168.818 39.8 169.898 39.8C170.938 39.8 171.864 40.0267 172.678 40.48C173.491 40.9333 174.124 41.5733 174.578 42.4C175.031 43.2133 175.258 44.1533 175.258 45.22ZM172.878 44.5C172.864 43.66 172.564 42.9867 171.978 42.48C171.391 41.9733 170.664 41.72 169.798 41.72C169.011 41.72 168.338 41.9733 167.778 42.48C167.218 42.9733 166.884 43.6467 166.778 44.5H172.878ZM177.042 45.44C177.042 44.3333 177.268 43.3533 177.722 42.5C178.188 41.6467 178.815 40.9867 179.602 40.52C180.402 40.04 181.282 39.8 182.242 39.8C183.108 39.8 183.862 39.9733 184.502 40.32C185.155 40.6533 185.675 41.0733 186.062 41.58V39.98H188.362V51H186.062V49.36C185.675 49.88 185.148 50.3133 184.482 50.66C183.815 51.0067 183.055 51.18 182.202 51.18C181.255 51.18 180.388 50.94 179.602 50.46C178.815 49.9667 178.188 49.2867 177.722 48.42C177.268 47.54 177.042 46.5467 177.042 45.44ZM186.062 45.48C186.062 44.72 185.902 44.06 185.582 43.5C185.275 42.94 184.868 42.5133 184.362 42.22C183.855 41.9267 183.308 41.78 182.722 41.78C182.135 41.78 181.588 41.9267 181.082 42.22C180.575 42.5 180.162 42.92 179.842 43.48C179.535 44.0267 179.382 44.68 179.382 45.44C179.382 46.2 179.535 46.8667 179.842 47.44C180.162 48.0133 180.575 48.4533 181.082 48.76C181.602 49.0533 182.148 49.2 182.722 49.2C183.308 49.2 183.855 49.0533 184.362 48.76C184.868 48.4667 185.275 48.04 185.582 47.48C185.902 46.9067 186.062 46.24 186.062 45.48ZM193.936 36.2V51H191.656V36.2H193.936ZM199.89 41.84V47.94C199.89 48.3533 199.983 48.6533 200.17 48.84C200.37 49.0133 200.703 49.1 201.17 49.1H202.57V51H200.77C199.743 51 198.956 50.76 198.41 50.28C197.863 49.8 197.59 49.02 197.59 47.94V41.84H196.29V39.98H197.59V37.24H199.89V39.98H202.57V41.84H199.89ZM210.671 39.8C211.511 39.8 212.258 39.98 212.911 40.34C213.578 40.7 214.098 41.2333 214.471 41.94C214.858 42.6467 215.051 43.5 215.051 44.5V51H212.791V44.84C212.791 43.8533 212.544 43.1 212.051 42.58C211.558 42.0467 210.884 41.78 210.031 41.78C209.178 41.78 208.498 42.0467 207.991 42.58C207.498 43.1 207.251 43.8533 207.251 44.84V51H204.971V36.2H207.251V41.26C207.638 40.7933 208.124 40.4333 208.711 40.18C209.311 39.9267 209.964 39.8 210.671 39.8Z" fill="#73767E"/>
</g>
<mask id="mask0_85_266" style="mask-type:alpha" maskUnits="userSpaceOnUse" x="2" y="2" width="286" height="80">
<rect x="2" y="2" width="286" height="80" rx="20" fill="#F4FAFF"/>
<rect x="26" y="25" width="35" height="35" rx="10" fill="#DCECFF"/>
<path d="M46.663 55.4509H42.0309C41.7407 55.451 41.4591 55.3518 41.233 55.1699C41.0069 54.988 40.8497 54.7342 40.7876 54.4507L40.2697 52.0532C39.5788 51.7505 38.9236 51.3719 38.3163 50.9245L35.9786 51.6689C35.7019 51.7572 35.4034 51.7481 35.1326 51.6432C34.8617 51.5384 34.6349 51.344 34.4898 51.0925L32.1686 47.0827C32.025 46.8309 31.9711 46.5378 32.0157 46.2514C32.0603 45.965 32.2008 45.7022 32.4142 45.506L34.2276 43.8517C34.1452 43.1023 34.1452 42.3461 34.2276 41.5967L32.4142 39.9462C32.2005 39.75 32.0599 39.4869 32.0152 39.2002C31.9706 38.9135 32.0247 38.6202 32.1686 38.3683L34.4847 34.3559C34.6298 34.1044 34.8566 33.91 35.1275 33.8052C35.3983 33.7003 35.6969 33.6912 35.9736 33.7795L38.3112 34.5239C38.6217 34.2948 38.945 34.0811 39.2784 33.8876C39.6003 33.7069 39.9312 33.5428 40.2697 33.3964L40.7889 31.0015C40.8507 30.718 41.0075 30.4641 41.2334 30.2819C41.4593 30.0998 41.7407 30.0003 42.0309 30H46.663C46.9531 30.0003 47.2345 30.0998 47.4604 30.2819C47.6863 30.4641 47.8431 30.718 47.905 31.0015L48.4292 33.3977C48.7856 33.5555 49.1342 33.7324 49.4715 33.9296C49.7858 34.1116 50.0899 34.3114 50.3826 34.5264L52.7215 33.782C52.9981 33.6941 53.2963 33.7033 53.5669 33.8082C53.8375 33.913 54.0641 34.1072 54.2092 34.3585L56.5252 38.3708C56.8204 38.8887 56.7186 39.5441 56.2796 39.9475L54.4662 41.6018C54.5487 42.3512 54.5487 43.1074 54.4662 43.8568L56.2796 45.5111C56.7186 45.9157 56.8204 46.5698 56.5252 47.0878L54.2092 51.1001C54.064 51.3517 53.8372 51.546 53.5664 51.6509C53.2955 51.7557 52.997 51.7648 52.7203 51.6766L50.3826 50.9321C49.7758 51.3792 49.121 51.7574 48.4305 52.0596L47.905 54.4507C47.8429 54.734 47.6859 54.9876 47.4601 55.1695C47.2342 55.3514 46.953 55.4507 46.663 55.4509ZM44.3418 37.6353C42.9918 37.6353 41.6971 38.1716 40.7425 39.1262C39.7879 40.0808 39.2516 41.3755 39.2516 42.7255C39.2516 44.0755 39.7879 45.3702 40.7425 46.3248C41.6971 47.2794 42.9918 47.8157 44.3418 47.8157C45.6918 47.8157 46.9865 47.2794 47.9411 46.3248C48.8957 45.3702 49.432 44.0755 49.432 42.7255C49.432 41.3755 48.8957 40.0808 47.9411 39.1262C46.9865 38.1716 45.6918 37.6353 44.3418 37.6353Z" fill="#0070FF"/>
<path d="M258 57C258 54.2386 260.239 52 263 52H283C285.761 52 288 54.2386 288 57V67C288 75.2843 281.284 82 273 82H263C260.239 82 258 79.7614 258 77V57Z" fill="#0070FF"/>
<g clip-path="url(#clip0_85_266)">
<path d="M271.667 59.375L275 63.75L271.667 68.125" stroke="white" stroke-width="2" stroke-linecap="round" stroke-linejoin="round"/>
<path d="M275 63.75H269.667C265.985 63.75 263 67.6674 263 72.5V73.375" stroke="white" stroke-width="2" stroke-linecap="round" stroke-linejoin="round"/>
</g>
<path d="M76.88 48.16H71.06L70.06 51H67.68L72.66 37.08H75.3L80.28 51H77.88L76.88 48.16ZM76.24 46.3L73.98 39.84L71.7 46.3H76.24ZM86.7453 51.18C85.8786 51.18 85.0986 51.0267 84.4053 50.72C83.7253 50.4 83.1853 49.9733 82.7853 49.44C82.3853 48.8933 82.172 48.2867 82.1453 47.62H84.5053C84.5453 48.0867 84.7653 48.48 85.1653 48.8C85.5786 49.1067 86.092 49.26 86.7053 49.26C87.3453 49.26 87.8386 49.14 88.1853 48.9C88.5453 48.6467 88.7253 48.3267 88.7253 47.94C88.7253 47.5267 88.5253 47.22 88.1253 47.02C87.7386 46.82 87.1186 46.6 86.2653 46.36C85.4386 46.1333 84.7653 45.9133 84.2453 45.7C83.7253 45.4867 83.272 45.16 82.8853 44.72C82.512 44.28 82.3253 43.7 82.3253 42.98C82.3253 42.3933 82.4986 41.86 82.8453 41.38C83.192 40.8867 83.6853 40.5 84.3253 40.22C84.9786 39.94 85.7253 39.8 86.5653 39.8C87.8186 39.8 88.8253 40.12 89.5853 40.76C90.3586 41.3867 90.772 42.2467 90.8253 43.34H88.5453C88.5053 42.8467 88.3053 42.4533 87.9453 42.16C87.5853 41.8667 87.0986 41.72 86.4853 41.72C85.8853 41.72 85.4253 41.8333 85.1053 42.06C84.7853 42.2867 84.6253 42.5867 84.6253 42.96C84.6253 43.2533 84.732 43.5 84.9453 43.7C85.1586 43.9 85.4186 44.06 85.7253 44.18C86.032 44.2867 86.4853 44.4267 87.0853 44.6C87.8853 44.8133 88.5386 45.0333 89.0453 45.26C89.5653 45.4733 90.012 45.7933 90.3853 46.22C90.7586 46.6467 90.952 47.2133 90.9653 47.92C90.9653 48.5467 90.792 49.1067 90.4453 49.6C90.0986 50.0933 89.6053 50.48 88.9653 50.76C88.3386 51.04 87.5986 51.18 86.7453 51.18ZM97.7289 51.18C96.8622 51.18 96.0822 51.0267 95.3889 50.72C94.7089 50.4 94.1689 49.9733 93.7689 49.44C93.3689 48.8933 93.1556 48.2867 93.1289 47.62H95.4889C95.5289 48.0867 95.7489 48.48 96.1489 48.8C96.5622 49.1067 97.0756 49.26 97.6889 49.26C98.3289 49.26 98.8222 49.14 99.1689 48.9C99.5289 48.6467 99.7089 48.3267 99.7089 47.94C99.7089 47.5267 99.5089 47.22 99.1089 47.02C98.7222 46.82 98.1022 46.6 97.2489 46.36C96.4222 46.1333 95.7489 45.9133 95.2289 45.7C94.7089 45.4867 94.2556 45.16 93.8689 44.72C93.4956 44.28 93.3089 43.7 93.3089 42.98C93.3089 42.3933 93.4822 41.86 93.8289 41.38C94.1756 40.8867 94.6689 40.5 95.3089 40.22C95.9622 39.94 96.7089 39.8 97.5489 39.8C98.8022 39.8 99.8089 40.12 100.569 40.76C101.342 41.3867 101.756 42.2467 101.809 43.34H99.5289C99.4889 42.8467 99.2889 42.4533 98.9289 42.16C98.5689 41.8667 98.0822 41.72 97.4689 41.72C96.8689 41.72 96.4089 41.8333 96.0889 42.06C95.7689 42.2867 95.6089 42.5867 95.6089 42.96C95.6089 43.2533 95.7156 43.5 95.9289 43.7C96.1422 43.9 96.4022 44.06 96.7089 44.18C97.0156 44.2867 97.4689 44.4267 98.0689 44.6C98.8689 44.8133 99.5222 45.0333 100.029 45.26C100.549 45.4733 100.996 45.7933 101.369 46.22C101.742 46.6467 101.936 47.2133 101.949 47.92C101.949 48.5467 101.776 49.1067 101.429 49.6C101.082 50.0933 100.589 50.48 99.9489 50.76C99.3222 51.04 98.5822 51.18 97.7289 51.18ZM114.813 45.22C114.813 45.6333 114.786 46.0067 114.733 46.34H106.313C106.379 47.22 106.706 47.9267 107.293 48.46C107.879 48.9933 108.599 49.26 109.453 49.26C110.679 49.26 111.546 48.7467 112.053 47.72H114.513C114.179 48.7333 113.573 49.5667 112.693 50.22C111.826 50.86 110.746 51.18 109.453 51.18C108.399 51.18 107.453 50.9467 106.613 50.48C105.786 50 105.133 49.3333 104.653 48.48C104.186 47.6133 103.953 46.6133 103.953 45.48C103.953 44.3467 104.179 43.3533 104.633 42.5C105.099 41.6333 105.746 40.9667 106.573 40.5C107.413 40.0333 108.373 39.8 109.453 39.8C110.493 39.8 111.419 40.0267 112.233 40.48C113.046 40.9333 113.679 41.5733 114.133 42.4C114.586 43.2133 114.813 44.1533 114.813 45.22ZM112.433 44.5C112.419 43.66 112.119 42.9867 111.533 42.48C110.946 41.9733 110.219 41.72 109.353 41.72C108.566 41.72 107.893 41.9733 107.333 42.48C106.773 42.9733 106.439 43.6467 106.333 44.5H112.433ZM120.016 41.84V47.94C120.016 48.3533 120.11 48.6533 120.296 48.84C120.496 49.0133 120.83 49.1 121.296 49.1H122.696V51H120.896C119.87 51 119.083 50.76 118.536 50.28C117.99 49.8 117.716 49.02 117.716 47.94V41.84H116.416V39.98H117.716V37.24H120.016V39.98H122.696V41.84H120.016ZM135.173 51.14C134.24 51.14 133.4 50.98 132.653 50.66C131.906 50.3267 131.32 49.86 130.893 49.26C130.466 48.66 130.253 47.96 130.253 47.16H132.693C132.746 47.76 132.98 48.2533 133.393 48.64C133.82 49.0267 134.413 49.22 135.173 49.22C135.96 49.22 136.573 49.0333 137.013 48.66C137.453 48.2733 137.673 47.78 137.673 47.18C137.673 46.7133 137.533 46.3333 137.253 46.04C136.986 45.7467 136.646 45.52 136.233 45.36C135.833 45.2 135.273 45.0267 134.553 44.84C133.646 44.6 132.906 44.36 132.333 44.12C131.773 43.8667 131.293 43.48 130.893 42.96C130.493 42.44 130.293 41.7467 130.293 40.88C130.293 40.08 130.493 39.38 130.893 38.78C131.293 38.18 131.853 37.72 132.573 37.4C133.293 37.08 134.126 36.92 135.073 36.92C136.42 36.92 137.52 37.26 138.373 37.94C139.24 38.6067 139.72 39.5267 139.813 40.7H137.293C137.253 40.1933 137.013 39.76 136.573 39.4C136.133 39.04 135.553 38.86 134.833 38.86C134.18 38.86 133.646 39.0267 133.233 39.36C132.82 39.6933 132.613 40.1733 132.613 40.8C132.613 41.2267 132.74 41.58 132.993 41.86C133.26 42.1267 133.593 42.34 133.993 42.5C134.393 42.66 134.94 42.8333 135.633 43.02C136.553 43.2733 137.3 43.5267 137.873 43.78C138.46 44.0333 138.953 44.4267 139.353 44.96C139.766 45.48 139.973 46.18 139.973 47.06C139.973 47.7667 139.78 48.4333 139.393 49.06C139.02 49.6867 138.466 50.1933 137.733 50.58C137.013 50.9533 136.16 51.14 135.173 51.14ZM153.063 45.22C153.063 45.6333 153.037 46.0067 152.983 46.34H144.563C144.63 47.22 144.957 47.9267 145.543 48.46C146.13 48.9933 146.85 49.26 147.703 49.26C148.93 49.26 149.797 48.7467 150.303 47.72H152.763C152.43 48.7333 151.823 49.5667 150.943 50.22C150.077 50.86 148.997 51.18 147.703 51.18C146.65 51.18 145.703 50.9467 144.863 50.48C144.037 50 143.383 49.3333 142.903 48.48C142.437 47.6133 142.203 46.6133 142.203 45.48C142.203 44.3467 142.43 43.3533 142.883 42.5C143.35 41.6333 143.997 40.9667 144.823 40.5C145.663 40.0333 146.623 39.8 147.703 39.8C148.743 39.8 149.67 40.0267 150.483 40.48C151.297 40.9333 151.93 41.5733 152.383 42.4C152.837 43.2133 153.063 44.1533 153.063 45.22ZM150.683 44.5C150.67 43.66 150.37 42.9867 149.783 42.48C149.197 41.9733 148.47 41.72 147.603 41.72C146.817 41.72 146.143 41.9733 145.583 42.48C145.023 42.9733 144.69 43.6467 144.583 44.5H150.683ZM158.267 41.84V47.94C158.267 48.3533 158.36 48.6533 158.547 48.84C158.747 49.0133 159.08 49.1 159.547 49.1H160.947V51H159.147C158.12 51 157.334 50.76 156.787 50.28C156.24 49.8 155.967 49.02 155.967 47.94V41.84H154.667V39.98H155.967V37.24H158.267V39.98H160.947V41.84H158.267ZM166.008 41.84V47.94C166.008 48.3533 166.102 48.6533 166.288 48.84C166.488 49.0133 166.822 49.1 167.288 49.1H168.688V51H166.888C165.862 51 165.075 50.76 164.528 50.28C163.982 49.8 163.708 49.02 163.708 47.94V41.84H162.408V39.98H163.708V37.24H166.008V39.98H168.688V41.84H166.008ZM172.25 38.52C171.837 38.52 171.49 38.38 171.21 38.1C170.93 37.82 170.79 37.4733 170.79 37.06C170.79 36.6467 170.93 36.3 171.21 36.02C171.49 35.74 171.837 35.6 172.25 35.6C172.65 35.6 172.99 35.74 173.27 36.02C173.55 36.3 173.69 36.6467 173.69 37.06C173.69 37.4733 173.55 37.82 173.27 38.1C172.99 38.38 172.65 38.52 172.25 38.52ZM173.37 39.98V51H171.09V39.98H173.37ZM182.223 39.8C183.09 39.8 183.863 39.98 184.543 40.34C185.237 40.7 185.777 41.2333 186.163 41.94C186.55 42.6467 186.743 43.5 186.743 44.5V51H184.483V44.84C184.483 43.8533 184.237 43.1 183.743 42.58C183.25 42.0467 182.577 41.78 181.723 41.78C180.87 41.78 180.19 42.0467 179.683 42.58C179.19 43.1 178.943 43.8533 178.943 44.84V51H176.663V39.98H178.943V41.24C179.317 40.7867 179.79 40.4333 180.363 40.18C180.95 39.9267 181.57 39.8 182.223 39.8ZM194.392 39.8C195.245 39.8 195.998 39.9733 196.652 40.32C197.318 40.6533 197.838 41.0733 198.212 41.58V39.98H200.512V51.18C200.512 52.1933 200.298 53.0933 199.872 53.88C199.445 54.68 198.825 55.3067 198.012 55.76C197.212 56.2133 196.252 56.44 195.132 56.44C193.638 56.44 192.398 56.0867 191.412 55.38C190.425 54.6867 189.865 53.74 189.732 52.54H191.992C192.165 53.1133 192.532 53.5733 193.092 53.92C193.665 54.28 194.345 54.46 195.132 54.46C196.052 54.46 196.792 54.18 197.352 53.62C197.925 53.06 198.212 52.2467 198.212 51.18V49.34C197.825 49.86 197.298 50.3 196.632 50.66C195.978 51.0067 195.232 51.18 194.392 51.18C193.432 51.18 192.552 50.94 191.752 50.46C190.965 49.9667 190.338 49.2867 189.872 48.42C189.418 47.54 189.192 46.5467 189.192 45.44C189.192 44.3333 189.418 43.3533 189.872 42.5C190.338 41.6467 190.965 40.9867 191.752 40.52C192.552 40.04 193.432 39.8 194.392 39.8ZM198.212 45.48C198.212 44.72 198.052 44.06 197.732 43.5C197.425 42.94 197.018 42.5133 196.512 42.22C196.005 41.9267 195.458 41.78 194.872 41.78C194.285 41.78 193.738 41.9267 193.232 42.22C192.725 42.5 192.312 42.92 191.992 43.48C191.685 44.0267 191.532 44.68 191.532 45.44C191.532 46.2 191.685 46.8667 191.992 47.44C192.312 48.0133 192.725 48.4533 193.232 48.76C193.752 49.0533 194.298 49.2 194.872 49.2C195.458 49.2 196.005 49.0533 196.512 48.76C197.018 48.4667 197.425 48.04 197.732 47.48C198.052 46.9067 198.212 46.24 198.212 45.48ZM207.806 51.18C206.94 51.18 206.16 51.0267 205.466 50.72C204.786 50.4 204.246 49.9733 203.846 49.44C203.446 48.8933 203.233 48.2867 203.206 47.62H205.566C205.606 48.0867 205.826 48.48 206.226 48.8C206.64 49.1067 207.153 49.26 207.766 49.26C208.406 49.26 208.9 49.14 209.246 48.9C209.606 48.6467 209.786 48.3267 209.786 47.94C209.786 47.5267 209.586 47.22 209.186 47.02C208.8 46.82 208.18 46.6 207.326 46.36C206.5 46.1333 205.826 45.9133 205.306 45.7C204.786 45.4867 204.333 45.16 203.946 44.72C203.573 44.28 203.386 43.7 203.386 42.98C203.386 42.3933 203.56 41.86 203.906 41.38C204.253 40.8867 204.746 40.5 205.386 40.22C206.04 39.94 206.786 39.8 207.626 39.8C208.88 39.8 209.886 40.12 210.646 40.76C211.42 41.3867 211.833 42.2467 211.886 43.34H209.606C209.566 42.8467 209.366 42.4533 209.006 42.16C208.646 41.8667 208.16 41.72 207.546 41.72C206.946 41.72 206.486 41.8333 206.166 42.06C205.846 42.2867 205.686 42.5867 205.686 42.96C205.686 43.2533 205.793 43.5 206.006 43.7C206.22 43.9 206.48 44.06 206.786 44.18C207.093 44.2867 207.546 44.4267 208.146 44.6C208.946 44.8133 209.6 45.0333 210.106 45.26C210.626 45.4733 211.073 45.7933 211.446 46.22C211.82 46.6467 212.013 47.2133 212.026 47.92C212.026 48.5467 211.853 49.1067 211.506 49.6C211.16 50.0933 210.666 50.48 210.026 50.76C209.4 51.04 208.66 51.18 207.806 51.18Z" fill="black"/>
</mask>
<g mask="url(#mask0_85_266)">
<path d="M254.25 17.25H248V9H254.25V2.125H261.75V9H268V17.25H261.75V24.125H254.25V17.25ZM258 -13L238 -4.75V11.9975C238 25.885 246.525 38.8375 258 42C269.475 38.8375 278 25.885 278 11.9975V-4.75L258 -13Z" fill="#B7D7FF"/>
</g>
<defs>
<filter id="filter0_d_85_266" x="0" y="0" width="306" height="100" filterUnits="userSpaceOnUse" color-interpolation-filters="sRGB">
<feFlood flood-opacity="0" result="BackgroundImageFix"/>
<feColorMatrix in="SourceAlpha" type="matrix" values="0 0 0 0 0 0 0 0 0 0 0 0 0 0 0 0 0 0 127 0" result="hardAlpha"/>
<feOffset dx="8" dy="8"/>
<feGaussianBlur stdDeviation="5"/>
<feComposite in2="hardAlpha" operator="out"/>
<feColorMatrix type="matrix" values="0 0 0 0 0 0 0 0 0 0 0 0 0 0 0 0 0 0 0.1 0"/>
<feBlend mode="normal" in2="BackgroundImageFix" result="effect1_dropShadow_85_266"/>
<feBlend mode="normal" in="SourceGraphic" in2="effect1_dropShadow_85_266" result="shape"/>
</filter>
<clipPath id="clip0_85_266">
<rect width="25" height="26" fill="white" transform="translate(261 55)"/>
</clipPath>
</defs>
</svg>
