<svg width="306" height="100" viewBox="0 0 306 100" fill="none" xmlns="http://www.w3.org/2000/svg">
<g filter="url(#filter0_d_85_246)">
<rect x="2" y="2" width="286" height="80" rx="20" fill="#F4FAFF"/>
<rect x="26" y="25" width="35" height="35" rx="10" fill="#DCECFF"/>
<path d="M49.1875 46.3812L51.0156 37.2361C52.25 36.574 53.0938 35.3116 53.0938 33.849C53.0938 32.8282 52.6822 31.8492 51.9496 31.1273C51.2171 30.4055 50.2235 30 49.1875 30C48.1515 30 47.1579 30.4055 46.4254 31.1273C45.6928 31.8492 45.2812 32.8282 45.2812 33.849C45.2812 35.3116 46.125 36.574 47.3594 37.2361L49.1875 46.3812ZM49.1875 31.5396C50.4844 31.5396 51.5312 32.5711 51.5312 33.849C51.5312 35.1268 50.4844 36.1584 49.1875 36.1584C47.8906 36.1584 46.8438 35.1268 46.8438 33.849C46.8438 32.5711 47.8906 31.5396 49.1875 31.5396ZM51.875 38.9296L57 36.882V50.7383L49.375 53.8636L39.8125 50.7383L32 53.8174V39.9611L39.8125 36.882L46.4844 39.0528L49.1875 50.2918L51.875 38.9296Z" fill="#0070FF"/>
<path d="M75.72 51L72.52 45.44H70.78V51H68.5V37.1H73.3C74.3667 37.1 75.2667 37.2867 76 37.66C76.7467 38.0333 77.3 38.5333 77.66 39.16C78.0333 39.7867 78.22 40.4867 78.22 41.26C78.22 42.1667 77.9533 42.9933 77.42 43.74C76.9 44.4733 76.0933 44.9733 75 45.24L78.44 51H75.72ZM70.78 43.62H73.3C74.1533 43.62 74.7933 43.4067 75.22 42.98C75.66 42.5533 75.88 41.98 75.88 41.26C75.88 40.54 75.6667 39.98 75.24 39.58C74.8133 39.1667 74.1667 38.96 73.3 38.96H70.78V43.62ZM91.5367 45.22C91.5367 45.6333 91.5101 46.0067 91.4567 46.34H83.0367C83.1034 47.22 83.4301 47.9267 84.0167 48.46C84.6034 48.9933 85.3234 49.26 86.1767 49.26C87.4034 49.26 88.2701 48.7467 88.7767 47.72H91.2367C90.9034 48.7333 90.2967 49.5667 89.4167 50.22C88.5501 50.86 87.4701 51.18 86.1767 51.18C85.1234 51.18 84.1767 50.9467 83.3367 50.48C82.5101 50 81.8567 49.3333 81.3767 48.48C80.9101 47.6133 80.6767 46.6133 80.6767 45.48C80.6767 44.3467 80.9034 43.3533 81.3567 42.5C81.8234 41.6333 82.4701 40.9667 83.2967 40.5C84.1367 40.0333 85.0967 39.8 86.1767 39.8C87.2167 39.8 88.1434 40.0267 88.9567 40.48C89.7701 40.9333 90.4034 41.5733 90.8567 42.4C91.3101 43.2133 91.5367 44.1533 91.5367 45.22ZM89.1567 44.5C89.1434 43.66 88.8434 42.9867 88.2567 42.48C87.6701 41.9733 86.9434 41.72 86.0767 41.72C85.2901 41.72 84.6167 41.9733 84.0567 42.48C83.4967 42.9733 83.1634 43.6467 83.0567 44.5H89.1567ZM93.3205 45.44C93.3205 44.3333 93.5471 43.3533 94.0005 42.5C94.4671 41.6467 95.0938 40.9867 95.8805 40.52C96.6805 40.04 97.5605 39.8 98.5205 39.8C99.3871 39.8 100.14 39.9733 100.78 40.32C101.434 40.6533 101.954 41.0733 102.34 41.58V39.98H104.64V51H102.34V49.36C101.954 49.88 101.427 50.3133 100.76 50.66C100.094 51.0067 99.3338 51.18 98.4805 51.18C97.5338 51.18 96.6671 50.94 95.8805 50.46C95.0938 49.9667 94.4671 49.2867 94.0005 48.42C93.5471 47.54 93.3205 46.5467 93.3205 45.44ZM102.34 45.48C102.34 44.72 102.18 44.06 101.86 43.5C101.554 42.94 101.147 42.5133 100.64 42.22C100.134 41.9267 99.5871 41.78 99.0005 41.78C98.4138 41.78 97.8671 41.9267 97.3605 42.22C96.8538 42.5 96.4405 42.92 96.1205 43.48C95.8138 44.0267 95.6605 44.68 95.6605 45.44C95.6605 46.2 95.8138 46.8667 96.1205 47.44C96.4405 48.0133 96.8538 48.4533 97.3605 48.76C97.8805 49.0533 98.4271 49.2 99.0005 49.2C99.5871 49.2 100.134 49.0533 100.64 48.76C101.147 48.4667 101.554 48.04 101.86 47.48C102.18 46.9067 102.34 46.24 102.34 45.48ZM110.215 36.2V51H107.935V36.2H110.215ZM116.169 41.84V47.94C116.169 48.3533 116.262 48.6533 116.449 48.84C116.649 49.0133 116.982 49.1 117.449 49.1H118.849V51H117.049C116.022 51 115.235 50.76 114.689 50.28C114.142 49.8 113.869 49.02 113.869 47.94V41.84H112.569V39.98H113.869V37.24H116.169V39.98H118.849V41.84H116.169ZM122.41 38.52C121.997 38.52 121.65 38.38 121.37 38.1C121.09 37.82 120.95 37.4733 120.95 37.06C120.95 36.6467 121.09 36.3 121.37 36.02C121.65 35.74 121.997 35.6 122.41 35.6C122.81 35.6 123.15 35.74 123.43 36.02C123.71 36.3 123.85 36.6467 123.85 37.06C123.85 37.4733 123.71 37.82 123.43 38.1C123.15 38.38 122.81 38.52 122.41 38.52ZM123.53 39.98V51H121.25V39.98H123.53ZM140.163 39.8C141.03 39.8 141.803 39.98 142.483 40.34C143.177 40.7 143.717 41.2333 144.103 41.94C144.503 42.6467 144.703 43.5 144.703 44.5V51H142.443V44.84C142.443 43.8533 142.197 43.1 141.703 42.58C141.21 42.0467 140.537 41.78 139.683 41.78C138.83 41.78 138.15 42.0467 137.643 42.58C137.15 43.1 136.903 43.8533 136.903 44.84V51H134.643V44.84C134.643 43.8533 134.397 43.1 133.903 42.58C133.41 42.0467 132.737 41.78 131.883 41.78C131.03 41.78 130.35 42.0467 129.843 42.58C129.35 43.1 129.103 43.8533 129.103 44.84V51H126.823V39.98H129.103V41.24C129.477 40.7867 129.95 40.4333 130.523 40.18C131.097 39.9267 131.71 39.8 132.363 39.8C133.243 39.8 134.03 39.9867 134.723 40.36C135.417 40.7333 135.95 41.2733 136.323 41.98C136.657 41.3133 137.177 40.7867 137.883 40.4C138.59 40 139.35 39.8 140.163 39.8ZM158.005 45.22C158.005 45.6333 157.978 46.0067 157.925 46.34H149.505C149.571 47.22 149.898 47.9267 150.485 48.46C151.071 48.9933 151.791 49.26 152.645 49.26C153.871 49.26 154.738 48.7467 155.245 47.72H157.705C157.371 48.7333 156.765 49.5667 155.885 50.22C155.018 50.86 153.938 51.18 152.645 51.18C151.591 51.18 150.645 50.9467 149.805 50.48C148.978 50 148.325 49.3333 147.845 48.48C147.378 47.6133 147.145 46.6133 147.145 45.48C147.145 44.3467 147.371 43.3533 147.825 42.5C148.291 41.6333 148.938 40.9667 149.765 40.5C150.605 40.0333 151.565 39.8 152.645 39.8C153.685 39.8 154.611 40.0267 155.425 40.48C156.238 40.9333 156.871 41.5733 157.325 42.4C157.778 43.2133 158.005 44.1533 158.005 45.22ZM155.625 44.5C155.611 43.66 155.311 42.9867 154.725 42.48C154.138 41.9733 153.411 41.72 152.545 41.72C151.758 41.72 151.085 41.9733 150.525 42.48C149.965 42.9733 149.631 43.6467 149.525 44.5H155.625ZM175.024 37.1V38.96H171.324V51H169.044V38.96H165.324V37.1H175.024ZM179.913 41.58C180.246 41.02 180.686 40.5867 181.233 40.28C181.793 39.96 182.453 39.8 183.213 39.8V42.16H182.633C181.739 42.16 181.059 42.3867 180.593 42.84C180.139 43.2933 179.913 44.08 179.913 45.2V51H177.633V39.98H179.913V41.58ZM184.849 45.44C184.849 44.3333 185.075 43.3533 185.529 42.5C185.995 41.6467 186.622 40.9867 187.409 40.52C188.209 40.04 189.089 39.8 190.049 39.8C190.915 39.8 191.669 39.9733 192.309 40.32C192.962 40.6533 193.482 41.0733 193.869 41.58V39.98H196.169V51H193.869V49.36C193.482 49.88 192.955 50.3133 192.289 50.66C191.622 51.0067 190.862 51.18 190.009 51.18C189.062 51.18 188.195 50.94 187.409 50.46C186.622 49.9667 185.995 49.2867 185.529 48.42C185.075 47.54 184.849 46.5467 184.849 45.44ZM193.869 45.48C193.869 44.72 193.709 44.06 193.389 43.5C193.082 42.94 192.675 42.5133 192.169 42.22C191.662 41.9267 191.115 41.78 190.529 41.78C189.942 41.78 189.395 41.9267 188.889 42.22C188.382 42.5 187.969 42.92 187.649 43.48C187.342 44.0267 187.189 44.68 187.189 45.44C187.189 46.2 187.342 46.8667 187.649 47.44C187.969 48.0133 188.382 48.4533 188.889 48.76C189.409 49.0533 189.955 49.2 190.529 49.2C191.115 49.2 191.662 49.0533 192.169 48.76C192.675 48.4667 193.082 48.04 193.389 47.48C193.709 46.9067 193.869 46.24 193.869 45.48ZM198.703 45.48C198.703 44.3467 198.93 43.3533 199.383 42.5C199.85 41.6333 200.49 40.9667 201.303 40.5C202.117 40.0333 203.05 39.8 204.103 39.8C205.437 39.8 206.537 40.12 207.403 40.76C208.283 41.3867 208.877 42.2867 209.183 43.46H206.723C206.523 42.9133 206.203 42.4867 205.763 42.18C205.323 41.8733 204.77 41.72 204.103 41.72C203.17 41.72 202.423 42.0533 201.863 42.72C201.317 43.3733 201.043 44.2933 201.043 45.48C201.043 46.6667 201.317 47.5933 201.863 48.26C202.423 48.9267 203.17 49.26 204.103 49.26C205.423 49.26 206.297 48.68 206.723 47.52H209.183C208.863 48.64 208.263 49.5333 207.383 50.2C206.503 50.8533 205.41 51.18 204.103 51.18C203.05 51.18 202.117 50.9467 201.303 50.48C200.49 50 199.85 49.3333 199.383 48.48C198.93 47.6133 198.703 46.6133 198.703 45.48ZM216.115 45.5L221.195 51H218.115L214.035 46.26V51H211.755V36.2H214.035V44.8L218.035 39.98H221.195L216.115 45.5ZM224.29 38.52C223.876 38.52 223.53 38.38 223.25 38.1C222.97 37.82 222.83 37.4733 222.83 37.06C222.83 36.6467 222.97 36.3 223.25 36.02C223.53 35.74 223.876 35.6 224.29 35.6C224.69 35.6 225.03 35.74 225.31 36.02C225.59 36.3 225.73 36.6467 225.73 37.06C225.73 37.4733 225.59 37.82 225.31 38.1C225.03 38.38 224.69 38.52 224.29 38.52ZM225.41 39.98V51H223.13V39.98H225.41ZM234.263 39.8C235.13 39.8 235.903 39.98 236.583 40.34C237.276 40.7 237.816 41.2333 238.203 41.94C238.59 42.6467 238.783 43.5 238.783 44.5V51H236.523V44.84C236.523 43.8533 236.276 43.1 235.783 42.58C235.29 42.0467 234.616 41.78 233.763 41.78C232.91 41.78 232.23 42.0467 231.723 42.58C231.23 43.1 230.983 43.8533 230.983 44.84V51H228.703V39.98H230.983V41.24C231.356 40.7867 231.83 40.4333 232.403 40.18C232.99 39.9267 233.61 39.8 234.263 39.8ZM246.431 39.8C247.285 39.8 248.038 39.9733 248.691 40.32C249.358 40.6533 249.878 41.0733 250.251 41.58V39.98H252.551V51.18C252.551 52.1933 252.338 53.0933 251.911 53.88C251.485 54.68 250.865 55.3067 250.051 55.76C249.251 56.2133 248.291 56.44 247.171 56.44C245.678 56.44 244.438 56.0867 243.451 55.38C242.465 54.6867 241.905 53.74 241.771 52.54H244.031C244.205 53.1133 244.571 53.5733 245.131 53.92C245.705 54.28 246.385 54.46 247.171 54.46C248.091 54.46 248.831 54.18 249.391 53.62C249.965 53.06 250.251 52.2467 250.251 51.18V49.34C249.865 49.86 249.338 50.3 248.671 50.66C248.018 51.0067 247.271 51.18 246.431 51.18C245.471 51.18 244.591 50.94 243.791 50.46C243.005 49.9667 242.378 49.2867 241.911 48.42C241.458 47.54 241.231 46.5467 241.231 45.44C241.231 44.3333 241.458 43.3533 241.911 42.5C242.378 41.6467 243.005 40.9867 243.791 40.52C244.591 40.04 245.471 39.8 246.431 39.8ZM250.251 45.48C250.251 44.72 250.091 44.06 249.771 43.5C249.465 42.94 249.058 42.5133 248.551 42.22C248.045 41.9267 247.498 41.78 246.911 41.78C246.325 41.78 245.778 41.9267 245.271 42.22C244.765 42.5 244.351 42.92 244.031 43.48C243.725 44.0267 243.571 44.68 243.571 45.44C243.571 46.2 243.725 46.8667 244.031 47.44C244.351 48.0133 244.765 48.4533 245.271 48.76C245.791 49.0533 246.338 49.2 246.911 49.2C247.498 49.2 248.045 49.0533 248.551 48.76C249.058 48.4667 249.465 48.04 249.771 47.48C250.091 46.9067 250.251 46.24 250.251 45.48Z" fill="#73767E"/>
</g>
<mask id="mask0_85_246" style="mask-type:alpha" maskUnits="userSpaceOnUse" x="2" y="2" width="286" height="80">
<rect x="2" y="2" width="286" height="80" rx="20" fill="#F4FAFF"/>
<rect x="26" y="25" width="35" height="35" rx="10" fill="#DCECFF"/>
<path d="M46.663 55.4509H42.0309C41.7407 55.451 41.4591 55.3518 41.233 55.1699C41.0069 54.988 40.8497 54.7342 40.7876 54.4507L40.2697 52.0532C39.5788 51.7505 38.9236 51.3719 38.3163 50.9245L35.9786 51.6689C35.7019 51.7572 35.4034 51.7481 35.1326 51.6432C34.8617 51.5384 34.6349 51.344 34.4898 51.0925L32.1686 47.0827C32.025 46.8309 31.9711 46.5378 32.0157 46.2514C32.0603 45.965 32.2008 45.7022 32.4142 45.506L34.2276 43.8517C34.1452 43.1023 34.1452 42.3461 34.2276 41.5967L32.4142 39.9462C32.2005 39.75 32.0599 39.4869 32.0152 39.2002C31.9706 38.9135 32.0247 38.6202 32.1686 38.3683L34.4847 34.3559C34.6298 34.1044 34.8566 33.91 35.1275 33.8052C35.3983 33.7003 35.6969 33.6912 35.9736 33.7795L38.3112 34.5239C38.6217 34.2948 38.945 34.0811 39.2784 33.8876C39.6003 33.7069 39.9312 33.5428 40.2697 33.3964L40.7889 31.0015C40.8507 30.718 41.0075 30.4641 41.2334 30.2819C41.4593 30.0998 41.7407 30.0003 42.0309 30H46.663C46.9531 30.0003 47.2345 30.0998 47.4604 30.2819C47.6863 30.4641 47.8431 30.718 47.905 31.0015L48.4292 33.3977C48.7856 33.5555 49.1342 33.7324 49.4715 33.9296C49.7858 34.1116 50.0899 34.3114 50.3826 34.5264L52.7215 33.782C52.9981 33.6941 53.2963 33.7033 53.5669 33.8082C53.8375 33.913 54.0641 34.1072 54.2092 34.3585L56.5252 38.3708C56.8204 38.8887 56.7186 39.5441 56.2796 39.9475L54.4662 41.6018C54.5487 42.3512 54.5487 43.1074 54.4662 43.8568L56.2796 45.5111C56.7186 45.9157 56.8204 46.5698 56.5252 47.0878L54.2092 51.1001C54.064 51.3517 53.8372 51.546 53.5664 51.6509C53.2955 51.7557 52.997 51.7648 52.7203 51.6766L50.3826 50.9321C49.7758 51.3792 49.121 51.7574 48.4305 52.0596L47.905 54.4507C47.8429 54.734 47.6859 54.9876 47.4601 55.1695C47.2342 55.3514 46.953 55.4507 46.663 55.4509ZM44.3418 37.6353C42.9918 37.6353 41.6971 38.1716 40.7425 39.1262C39.7879 40.0808 39.2516 41.3755 39.2516 42.7255C39.2516 44.0755 39.7879 45.3702 40.7425 46.3248C41.6971 47.2794 42.9918 47.8157 44.3418 47.8157C45.6918 47.8157 46.9865 47.2794 47.9411 46.3248C48.8957 45.3702 49.432 44.0755 49.432 42.7255C49.432 41.3755 48.8957 40.0808 47.9411 39.1262C46.9865 38.1716 45.6918 37.6353 44.3418 37.6353Z" fill="#0070FF"/>
<path d="M258 57C258 54.2386 260.239 52 263 52H283C285.761 52 288 54.2386 288 57V67C288 75.2843 281.284 82 273 82H263C260.239 82 258 79.7614 258 77V57Z" fill="#0070FF"/>
<g clip-path="url(#clip0_85_246)">
<path d="M277 60L282 65L277 70" stroke="white" stroke-width="2" stroke-linecap="round" stroke-linejoin="round"/>
<path d="M282 65H274C268.477 65 264 69.477 264 75V76" stroke="white" stroke-width="2" stroke-linecap="round" stroke-linejoin="round"/>
</g>
<path d="M76.88 48.16H71.06L70.06 51H67.68L72.66 37.08H75.3L80.28 51H77.88L76.88 48.16ZM76.24 46.3L73.98 39.84L71.7 46.3H76.24ZM86.7453 51.18C85.8786 51.18 85.0986 51.0267 84.4053 50.72C83.7253 50.4 83.1853 49.9733 82.7853 49.44C82.3853 48.8933 82.172 48.2867 82.1453 47.62H84.5053C84.5453 48.0867 84.7653 48.48 85.1653 48.8C85.5786 49.1067 86.092 49.26 86.7053 49.26C87.3453 49.26 87.8386 49.14 88.1853 48.9C88.5453 48.6467 88.7253 48.3267 88.7253 47.94C88.7253 47.5267 88.5253 47.22 88.1253 47.02C87.7386 46.82 87.1186 46.6 86.2653 46.36C85.4386 46.1333 84.7653 45.9133 84.2453 45.7C83.7253 45.4867 83.272 45.16 82.8853 44.72C82.512 44.28 82.3253 43.7 82.3253 42.98C82.3253 42.3933 82.4986 41.86 82.8453 41.38C83.192 40.8867 83.6853 40.5 84.3253 40.22C84.9786 39.94 85.7253 39.8 86.5653 39.8C87.8186 39.8 88.8253 40.12 89.5853 40.76C90.3586 41.3867 90.772 42.2467 90.8253 43.34H88.5453C88.5053 42.8467 88.3053 42.4533 87.9453 42.16C87.5853 41.8667 87.0986 41.72 86.4853 41.72C85.8853 41.72 85.4253 41.8333 85.1053 42.06C84.7853 42.2867 84.6253 42.5867 84.6253 42.96C84.6253 43.2533 84.732 43.5 84.9453 43.7C85.1586 43.9 85.4186 44.06 85.7253 44.18C86.032 44.2867 86.4853 44.4267 87.0853 44.6C87.8853 44.8133 88.5386 45.0333 89.0453 45.26C89.5653 45.4733 90.012 45.7933 90.3853 46.22C90.7586 46.6467 90.952 47.2133 90.9653 47.92C90.9653 48.5467 90.792 49.1067 90.4453 49.6C90.0986 50.0933 89.6053 50.48 88.9653 50.76C88.3386 51.04 87.5986 51.18 86.7453 51.18ZM97.7289 51.18C96.8622 51.18 96.0822 51.0267 95.3889 50.72C94.7089 50.4 94.1689 49.9733 93.7689 49.44C93.3689 48.8933 93.1556 48.2867 93.1289 47.62H95.4889C95.5289 48.0867 95.7489 48.48 96.1489 48.8C96.5622 49.1067 97.0756 49.26 97.6889 49.26C98.3289 49.26 98.8222 49.14 99.1689 48.9C99.5289 48.6467 99.7089 48.3267 99.7089 47.94C99.7089 47.5267 99.5089 47.22 99.1089 47.02C98.7222 46.82 98.1022 46.6 97.2489 46.36C96.4222 46.1333 95.7489 45.9133 95.2289 45.7C94.7089 45.4867 94.2556 45.16 93.8689 44.72C93.4956 44.28 93.3089 43.7 93.3089 42.98C93.3089 42.3933 93.4822 41.86 93.8289 41.38C94.1756 40.8867 94.6689 40.5 95.3089 40.22C95.9622 39.94 96.7089 39.8 97.5489 39.8C98.8022 39.8 99.8089 40.12 100.569 40.76C101.342 41.3867 101.756 42.2467 101.809 43.34H99.5289C99.4889 42.8467 99.2889 42.4533 98.9289 42.16C98.5689 41.8667 98.0822 41.72 97.4689 41.72C96.8689 41.72 96.4089 41.8333 96.0889 42.06C95.7689 42.2867 95.6089 42.5867 95.6089 42.96C95.6089 43.2533 95.7156 43.5 95.9289 43.7C96.1422 43.9 96.4022 44.06 96.7089 44.18C97.0156 44.2867 97.4689 44.4267 98.0689 44.6C98.8689 44.8133 99.5222 45.0333 100.029 45.26C100.549 45.4733 100.996 45.7933 101.369 46.22C101.742 46.6467 101.936 47.2133 101.949 47.92C101.949 48.5467 101.776 49.1067 101.429 49.6C101.082 50.0933 100.589 50.48 99.9489 50.76C99.3222 51.04 98.5822 51.18 97.7289 51.18ZM114.813 45.22C114.813 45.6333 114.786 46.0067 114.733 46.34H106.313C106.379 47.22 106.706 47.9267 107.293 48.46C107.879 48.9933 108.599 49.26 109.453 49.26C110.679 49.26 111.546 48.7467 112.053 47.72H114.513C114.179 48.7333 113.573 49.5667 112.693 50.22C111.826 50.86 110.746 51.18 109.453 51.18C108.399 51.18 107.453 50.9467 106.613 50.48C105.786 50 105.133 49.3333 104.653 48.48C104.186 47.6133 103.953 46.6133 103.953 45.48C103.953 44.3467 104.179 43.3533 104.633 42.5C105.099 41.6333 105.746 40.9667 106.573 40.5C107.413 40.0333 108.373 39.8 109.453 39.8C110.493 39.8 111.419 40.0267 112.233 40.48C113.046 40.9333 113.679 41.5733 114.133 42.4C114.586 43.2133 114.813 44.1533 114.813 45.22ZM112.433 44.5C112.419 43.66 112.119 42.9867 111.533 42.48C110.946 41.9733 110.219 41.72 109.353 41.72C108.566 41.72 107.893 41.9733 107.333 42.48C106.773 42.9733 106.439 43.6467 106.333 44.5H112.433ZM120.016 41.84V47.94C120.016 48.3533 120.11 48.6533 120.296 48.84C120.496 49.0133 120.83 49.1 121.296 49.1H122.696V51H120.896C119.87 51 119.083 50.76 118.536 50.28C117.99 49.8 117.716 49.02 117.716 47.94V41.84H116.416V39.98H117.716V37.24H120.016V39.98H122.696V41.84H120.016ZM135.173 51.14C134.24 51.14 133.4 50.98 132.653 50.66C131.906 50.3267 131.32 49.86 130.893 49.26C130.466 48.66 130.253 47.96 130.253 47.16H132.693C132.746 47.76 132.98 48.2533 133.393 48.64C133.82 49.0267 134.413 49.22 135.173 49.22C135.96 49.22 136.573 49.0333 137.013 48.66C137.453 48.2733 137.673 47.78 137.673 47.18C137.673 46.7133 137.533 46.3333 137.253 46.04C136.986 45.7467 136.646 45.52 136.233 45.36C135.833 45.2 135.273 45.0267 134.553 44.84C133.646 44.6 132.906 44.36 132.333 44.12C131.773 43.8667 131.293 43.48 130.893 42.96C130.493 42.44 130.293 41.7467 130.293 40.88C130.293 40.08 130.493 39.38 130.893 38.78C131.293 38.18 131.853 37.72 132.573 37.4C133.293 37.08 134.126 36.92 135.073 36.92C136.42 36.92 137.52 37.26 138.373 37.94C139.24 38.6067 139.72 39.5267 139.813 40.7H137.293C137.253 40.1933 137.013 39.76 136.573 39.4C136.133 39.04 135.553 38.86 134.833 38.86C134.18 38.86 133.646 39.0267 133.233 39.36C132.82 39.6933 132.613 40.1733 132.613 40.8C132.613 41.2267 132.74 41.58 132.993 41.86C133.26 42.1267 133.593 42.34 133.993 42.5C134.393 42.66 134.94 42.8333 135.633 43.02C136.553 43.2733 137.3 43.5267 137.873 43.78C138.46 44.0333 138.953 44.4267 139.353 44.96C139.766 45.48 139.973 46.18 139.973 47.06C139.973 47.7667 139.78 48.4333 139.393 49.06C139.02 49.6867 138.466 50.1933 137.733 50.58C137.013 50.9533 136.16 51.14 135.173 51.14ZM153.063 45.22C153.063 45.6333 153.037 46.0067 152.983 46.34H144.563C144.63 47.22 144.957 47.9267 145.543 48.46C146.13 48.9933 146.85 49.26 147.703 49.26C148.93 49.26 149.797 48.7467 150.303 47.72H152.763C152.43 48.7333 151.823 49.5667 150.943 50.22C150.077 50.86 148.997 51.18 147.703 51.18C146.65 51.18 145.703 50.9467 144.863 50.48C144.037 50 143.383 49.3333 142.903 48.48C142.437 47.6133 142.203 46.6133 142.203 45.48C142.203 44.3467 142.43 43.3533 142.883 42.5C143.35 41.6333 143.997 40.9667 144.823 40.5C145.663 40.0333 146.623 39.8 147.703 39.8C148.743 39.8 149.67 40.0267 150.483 40.48C151.297 40.9333 151.93 41.5733 152.383 42.4C152.837 43.2133 153.063 44.1533 153.063 45.22ZM150.683 44.5C150.67 43.66 150.37 42.9867 149.783 42.48C149.197 41.9733 148.47 41.72 147.603 41.72C146.817 41.72 146.143 41.9733 145.583 42.48C145.023 42.9733 144.69 43.6467 144.583 44.5H150.683ZM158.267 41.84V47.94C158.267 48.3533 158.36 48.6533 158.547 48.84C158.747 49.0133 159.08 49.1 159.547 49.1H160.947V51H159.147C158.12 51 157.334 50.76 156.787 50.28C156.24 49.8 155.967 49.02 155.967 47.94V41.84H154.667V39.98H155.967V37.24H158.267V39.98H160.947V41.84H158.267ZM166.008 41.84V47.94C166.008 48.3533 166.102 48.6533 166.288 48.84C166.488 49.0133 166.822 49.1 167.288 49.1H168.688V51H166.888C165.862 51 165.075 50.76 164.528 50.28C163.982 49.8 163.708 49.02 163.708 47.94V41.84H162.408V39.98H163.708V37.24H166.008V39.98H168.688V41.84H166.008ZM172.25 38.52C171.837 38.52 171.49 38.38 171.21 38.1C170.93 37.82 170.79 37.4733 170.79 37.06C170.79 36.6467 170.93 36.3 171.21 36.02C171.49 35.74 171.837 35.6 172.25 35.6C172.65 35.6 172.99 35.74 173.27 36.02C173.55 36.3 173.69 36.6467 173.69 37.06C173.69 37.4733 173.55 37.82 173.27 38.1C172.99 38.38 172.65 38.52 172.25 38.52ZM173.37 39.98V51H171.09V39.98H173.37ZM182.223 39.8C183.09 39.8 183.863 39.98 184.543 40.34C185.237 40.7 185.777 41.2333 186.163 41.94C186.55 42.6467 186.743 43.5 186.743 44.5V51H184.483V44.84C184.483 43.8533 184.237 43.1 183.743 42.58C183.25 42.0467 182.577 41.78 181.723 41.78C180.87 41.78 180.19 42.0467 179.683 42.58C179.19 43.1 178.943 43.8533 178.943 44.84V51H176.663V39.98H178.943V41.24C179.317 40.7867 179.79 40.4333 180.363 40.18C180.95 39.9267 181.57 39.8 182.223 39.8ZM194.392 39.8C195.245 39.8 195.998 39.9733 196.652 40.32C197.318 40.6533 197.838 41.0733 198.212 41.58V39.98H200.512V51.18C200.512 52.1933 200.298 53.0933 199.872 53.88C199.445 54.68 198.825 55.3067 198.012 55.76C197.212 56.2133 196.252 56.44 195.132 56.44C193.638 56.44 192.398 56.0867 191.412 55.38C190.425 54.6867 189.865 53.74 189.732 52.54H191.992C192.165 53.1133 192.532 53.5733 193.092 53.92C193.665 54.28 194.345 54.46 195.132 54.46C196.052 54.46 196.792 54.18 197.352 53.62C197.925 53.06 198.212 52.2467 198.212 51.18V49.34C197.825 49.86 197.298 50.3 196.632 50.66C195.978 51.0067 195.232 51.18 194.392 51.18C193.432 51.18 192.552 50.94 191.752 50.46C190.965 49.9667 190.338 49.2867 189.872 48.42C189.418 47.54 189.192 46.5467 189.192 45.44C189.192 44.3333 189.418 43.3533 189.872 42.5C190.338 41.6467 190.965 40.9867 191.752 40.52C192.552 40.04 193.432 39.8 194.392 39.8ZM198.212 45.48C198.212 44.72 198.052 44.06 197.732 43.5C197.425 42.94 197.018 42.5133 196.512 42.22C196.005 41.9267 195.458 41.78 194.872 41.78C194.285 41.78 193.738 41.9267 193.232 42.22C192.725 42.5 192.312 42.92 191.992 43.48C191.685 44.0267 191.532 44.68 191.532 45.44C191.532 46.2 191.685 46.8667 191.992 47.44C192.312 48.0133 192.725 48.4533 193.232 48.76C193.752 49.0533 194.298 49.2 194.872 49.2C195.458 49.2 196.005 49.0533 196.512 48.76C197.018 48.4667 197.425 48.04 197.732 47.48C198.052 46.9067 198.212 46.24 198.212 45.48ZM207.806 51.18C206.94 51.18 206.16 51.0267 205.466 50.72C204.786 50.4 204.246 49.9733 203.846 49.44C203.446 48.8933 203.233 48.2867 203.206 47.62H205.566C205.606 48.0867 205.826 48.48 206.226 48.8C206.64 49.1067 207.153 49.26 207.766 49.26C208.406 49.26 208.9 49.14 209.246 48.9C209.606 48.6467 209.786 48.3267 209.786 47.94C209.786 47.5267 209.586 47.22 209.186 47.02C208.8 46.82 208.18 46.6 207.326 46.36C206.5 46.1333 205.826 45.9133 205.306 45.7C204.786 45.4867 204.333 45.16 203.946 44.72C203.573 44.28 203.386 43.7 203.386 42.98C203.386 42.3933 203.56 41.86 203.906 41.38C204.253 40.8867 204.746 40.5 205.386 40.22C206.04 39.94 206.786 39.8 207.626 39.8C208.88 39.8 209.886 40.12 210.646 40.76C211.42 41.3867 211.833 42.2467 211.886 43.34H209.606C209.566 42.8467 209.366 42.4533 209.006 42.16C208.646 41.8667 208.16 41.72 207.546 41.72C206.946 41.72 206.486 41.8333 206.166 42.06C205.846 42.2867 205.686 42.5867 205.686 42.96C205.686 43.2533 205.793 43.5 206.006 43.7C206.22 43.9 206.48 44.06 206.786 44.18C207.093 44.2867 207.546 44.4267 208.146 44.6C208.946 44.8133 209.6 45.0333 210.106 45.26C210.626 45.4733 211.073 45.7933 211.446 46.22C211.82 46.6467 212.013 47.2133 212.026 47.92C212.026 48.5467 211.853 49.1067 211.506 49.6C211.16 50.0933 210.666 50.48 210.026 50.76C209.4 51.04 208.66 51.18 207.806 51.18Z" fill="black"/>
</mask>
<g mask="url(#mask0_85_246)">
<path d="M270.208 26.0258L272.89 12.6129C274.7 11.6419 275.938 9.79032 275.938 7.64516C275.938 6.14797 275.334 4.7121 274.259 3.65343C273.185 2.59476 271.728 2 270.208 2C268.689 2 267.232 2.59476 266.157 3.65343C265.083 4.7121 264.479 6.14797 264.479 7.64516C264.479 9.79032 265.717 11.6419 267.527 12.6129L270.208 26.0258ZM270.208 4.25806C272.11 4.25806 273.646 5.77097 273.646 7.64516C273.646 9.51935 272.11 11.0323 270.208 11.0323C268.306 11.0323 266.771 9.51935 266.771 7.64516C266.771 5.77097 268.306 4.25806 270.208 4.25806ZM274.15 15.0968L281.667 12.0935V32.4161L270.483 37L256.458 32.4161L245 36.9323V16.6097L256.458 12.0935L266.244 15.2774L270.208 31.7613L274.15 15.0968Z" fill="#B7D7FF"/>
</g>
<defs>
<filter id="filter0_d_85_246" x="0" y="0" width="306" height="100" filterUnits="userSpaceOnUse" color-interpolation-filters="sRGB">
<feFlood flood-opacity="0" result="BackgroundImageFix"/>
<feColorMatrix in="SourceAlpha" type="matrix" values="0 0 0 0 0 0 0 0 0 0 0 0 0 0 0 0 0 0 127 0" result="hardAlpha"/>
<feOffset dx="8" dy="8"/>
<feGaussianBlur stdDeviation="5"/>
<feComposite in2="hardAlpha" operator="out"/>
<feColorMatrix type="matrix" values="0 0 0 0 0 0 0 0 0 0 0 0 0 0 0 0 0 0 0.1 0"/>
<feBlend mode="normal" in2="BackgroundImageFix" result="effect1_dropShadow_85_246"/>
<feBlend mode="normal" in="SourceGraphic" in2="effect1_dropShadow_85_246" result="shape"/>
</filter>
<clipPath id="clip0_85_246">
<rect width="24" height="24" fill="white" transform="translate(261 55)"/>
</clipPath>
</defs>
</svg>
